G04*
G04 #@! TF.GenerationSoftware,Altium Limited,Altium Designer,19.1.6 (110)*
G04*
G04 Layer_Color=16711935*
%FSLAX43Y43*%
%MOMM*%
G71*
G01*
G75*
%ADD136C,6.203*%
%ADD137C,2.503*%
G04:AMPARAMS|DCode=138|XSize=2.503mm|YSize=2.503mm|CornerRadius=0.217mm|HoleSize=0mm|Usage=FLASHONLY|Rotation=270.000|XOffset=0mm|YOffset=0mm|HoleType=Round|Shape=RoundedRectangle|*
%AMROUNDEDRECTD138*
21,1,2.503,2.070,0,0,270.0*
21,1,2.070,2.503,0,0,270.0*
1,1,0.433,-1.035,-1.035*
1,1,0.433,-1.035,1.035*
1,1,0.433,1.035,1.035*
1,1,0.433,1.035,-1.035*
%
%ADD138ROUNDEDRECTD138*%
%ADD139C,0.803*%
%ADD140C,2.003*%
%ADD141C,2.703*%
%ADD142R,2.703X2.703*%
%ADD143O,1.103X2.403*%
%ADD144C,1.803*%
%ADD145R,1.803X1.803*%
%ADD146C,1.503*%
%ADD147C,2.203*%
%ADD148R,2.503X2.503*%
%ADD149O,2.203X2.503*%
%ADD150R,2.203X2.503*%
%ADD151R,2.203X2.203*%
%ADD152O,4.203X2.203*%
%ADD153O,3.203X2.203*%
G36*
X33500Y42225D02*
X31325Y44400D01*
X26900Y44400D01*
X25800Y43300D01*
X25800Y41764D01*
X28500Y39028D01*
X28500Y35925D01*
X322750D01*
Y42225D01*
X33500Y42225D01*
D02*
G37*
G36*
X28500Y29125D02*
Y35425D01*
X322750D01*
Y29125D01*
X28500D01*
D02*
G37*
D136*
X323125Y3700D02*
D03*
X286250D02*
D03*
X175775Y75000D02*
D03*
X28475Y3700D02*
D03*
X13000Y48500D02*
D03*
X13000Y3700D02*
D03*
X65300Y48500D02*
D03*
X323075D02*
D03*
X286250D02*
D03*
X249425D02*
D03*
X212600D02*
D03*
X175775D02*
D03*
X138950D02*
D03*
X102125D02*
D03*
X28475D02*
D03*
X28475Y75000D02*
D03*
X323075D02*
D03*
X286250D02*
D03*
X249425D02*
D03*
X212600D02*
D03*
X138950D02*
D03*
X102125D02*
D03*
X65300D02*
D03*
D137*
X294350Y75975D02*
D03*
X257525D02*
D03*
X220700D02*
D03*
X183875D02*
D03*
X147050D02*
D03*
X110225D02*
D03*
X73400D02*
D03*
X36575D02*
D03*
X304625D02*
D03*
X267800D02*
D03*
X230975D02*
D03*
X194150D02*
D03*
X157325D02*
D03*
X120500D02*
D03*
X83675D02*
D03*
X46850D02*
D03*
X58755Y72000D02*
D03*
X95580D02*
D03*
X132405D02*
D03*
X169230D02*
D03*
X206055D02*
D03*
X242880D02*
D03*
X279705D02*
D03*
X316530D02*
D03*
D138*
X294350Y70975D02*
D03*
X257525D02*
D03*
X220700D02*
D03*
X183875D02*
D03*
X147050D02*
D03*
X110225D02*
D03*
X73400D02*
D03*
X36575D02*
D03*
X304625D02*
D03*
X267800D02*
D03*
X230975D02*
D03*
X194150D02*
D03*
X157325D02*
D03*
X120500D02*
D03*
X83675D02*
D03*
X46850D02*
D03*
D139*
X12630Y73375D02*
D03*
Y74275D02*
D03*
X11850Y74725D02*
D03*
Y75625D02*
D03*
X12630Y71575D02*
D03*
Y76075D02*
D03*
Y72475D02*
D03*
Y75175D02*
D03*
X11850Y72925D02*
D03*
Y76525D02*
D03*
Y77425D02*
D03*
Y72025D02*
D03*
Y73825D02*
D03*
X12630Y76975D02*
D03*
D140*
X25150Y12710D02*
D03*
X22150Y15710D02*
D03*
Y12710D02*
D03*
X16150D02*
D03*
Y15710D02*
D03*
X19150Y12710D02*
D03*
Y15710D02*
D03*
X13150Y12710D02*
D03*
X16150Y60285D02*
D03*
Y63285D02*
D03*
X19150Y60285D02*
D03*
Y63285D02*
D03*
X22150Y60285D02*
D03*
X13150D02*
D03*
X16150Y37285D02*
D03*
Y40285D02*
D03*
X19150Y37285D02*
D03*
Y40285D02*
D03*
X22150Y37285D02*
D03*
X13150D02*
D03*
X89175Y57060D02*
D03*
X98175D02*
D03*
X95175Y60060D02*
D03*
Y57060D02*
D03*
X92175Y60060D02*
D03*
Y57060D02*
D03*
X165825D02*
D03*
Y60060D02*
D03*
X168825Y57060D02*
D03*
Y60060D02*
D03*
X171825Y57060D02*
D03*
X162825D02*
D03*
X199650D02*
D03*
X208650D02*
D03*
X205650Y60060D02*
D03*
Y57060D02*
D03*
X202650Y60060D02*
D03*
Y57060D02*
D03*
X239475D02*
D03*
Y60060D02*
D03*
X242475Y57060D02*
D03*
Y60060D02*
D03*
X245475Y57060D02*
D03*
X236475D02*
D03*
X273300D02*
D03*
X282300D02*
D03*
X279300Y60060D02*
D03*
Y57060D02*
D03*
X276300Y60060D02*
D03*
Y57060D02*
D03*
X313125D02*
D03*
Y60060D02*
D03*
X316125Y57060D02*
D03*
Y60060D02*
D03*
X319125Y57060D02*
D03*
X310125D02*
D03*
X52350D02*
D03*
X61350D02*
D03*
X58350Y60060D02*
D03*
Y57060D02*
D03*
X55350Y60060D02*
D03*
Y57060D02*
D03*
X129000D02*
D03*
Y60060D02*
D03*
X132000Y57060D02*
D03*
Y60060D02*
D03*
X135000Y57060D02*
D03*
X126000D02*
D03*
D141*
X36060Y10000D02*
D03*
D142*
X41140D02*
D03*
D143*
X10810Y72125D02*
D03*
X13670D02*
D03*
Y76925D02*
D03*
X10810D02*
D03*
D144*
X19775Y77950D02*
D03*
X22315D02*
D03*
D145*
X17235D02*
D03*
D146*
X24855D02*
D03*
D147*
X19775Y72870D02*
D03*
X82030Y14775D02*
D03*
X74410D02*
D03*
X76950D02*
D03*
X79490D02*
D03*
X81045Y5175D02*
D03*
D148*
X54945Y72000D02*
D03*
X91770D02*
D03*
X128595D02*
D03*
X165420D02*
D03*
X202245D02*
D03*
X239070D02*
D03*
X275895D02*
D03*
X312720D02*
D03*
D149*
X49850Y4150D02*
D03*
X47310D02*
D03*
D150*
X52390D02*
D03*
D151*
X71870Y14775D02*
D03*
X83585Y5175D02*
D03*
D152*
X28500Y42850D02*
D03*
D153*
Y20250D02*
D03*
M02*
