G04*
G04 #@! TF.GenerationSoftware,Altium Limited,Altium Designer,19.1.6 (110)*
G04*
G04 Layer_Color=8388736*
%FSLAX43Y43*%
%MOMM*%
G71*
G01*
G75*
%ADD20R,0.500X0.500*%
G04:AMPARAMS|DCode=76|XSize=1.153mm|YSize=1.103mm|CornerRadius=0.192mm|HoleSize=0mm|Usage=FLASHONLY|Rotation=0.000|XOffset=0mm|YOffset=0mm|HoleType=Round|Shape=RoundedRectangle|*
%AMROUNDEDRECTD76*
21,1,1.153,0.720,0,0,0.0*
21,1,0.770,1.103,0,0,0.0*
1,1,0.383,0.385,-0.360*
1,1,0.383,-0.385,-0.360*
1,1,0.383,-0.385,0.360*
1,1,0.383,0.385,0.360*
%
%ADD76ROUNDEDRECTD76*%
G04:AMPARAMS|DCode=77|XSize=0.823mm|YSize=0.863mm|CornerRadius=0.164mm|HoleSize=0mm|Usage=FLASHONLY|Rotation=180.000|XOffset=0mm|YOffset=0mm|HoleType=Round|Shape=RoundedRectangle|*
%AMROUNDEDRECTD77*
21,1,0.823,0.536,0,0,180.0*
21,1,0.496,0.863,0,0,180.0*
1,1,0.327,-0.248,0.268*
1,1,0.327,0.248,0.268*
1,1,0.327,0.248,-0.268*
1,1,0.327,-0.248,-0.268*
%
%ADD77ROUNDEDRECTD77*%
G04:AMPARAMS|DCode=78|XSize=1.003mm|YSize=1.103mm|CornerRadius=0.302mm|HoleSize=0mm|Usage=FLASHONLY|Rotation=0.000|XOffset=0mm|YOffset=0mm|HoleType=Round|Shape=RoundedRectangle|*
%AMROUNDEDRECTD78*
21,1,1.003,0.500,0,0,0.0*
21,1,0.400,1.103,0,0,0.0*
1,1,0.603,0.200,-0.250*
1,1,0.603,-0.200,-0.250*
1,1,0.603,-0.200,0.250*
1,1,0.603,0.200,0.250*
%
%ADD78ROUNDEDRECTD78*%
G04:AMPARAMS|DCode=79|XSize=1.153mm|YSize=1.103mm|CornerRadius=0.237mm|HoleSize=0mm|Usage=FLASHONLY|Rotation=90.000|XOffset=0mm|YOffset=0mm|HoleType=Round|Shape=RoundedRectangle|*
%AMROUNDEDRECTD79*
21,1,1.153,0.630,0,0,90.0*
21,1,0.680,1.103,0,0,90.0*
1,1,0.473,0.315,0.340*
1,1,0.473,0.315,-0.340*
1,1,0.473,-0.315,-0.340*
1,1,0.473,-0.315,0.340*
%
%ADD79ROUNDEDRECTD79*%
G04:AMPARAMS|DCode=80|XSize=0.823mm|YSize=0.863mm|CornerRadius=0.164mm|HoleSize=0mm|Usage=FLASHONLY|Rotation=270.000|XOffset=0mm|YOffset=0mm|HoleType=Round|Shape=RoundedRectangle|*
%AMROUNDEDRECTD80*
21,1,0.823,0.536,0,0,270.0*
21,1,0.496,0.863,0,0,270.0*
1,1,0.327,-0.268,-0.248*
1,1,0.327,-0.268,0.248*
1,1,0.327,0.268,0.248*
1,1,0.327,0.268,-0.248*
%
%ADD80ROUNDEDRECTD80*%
G04:AMPARAMS|DCode=81|XSize=0.853mm|YSize=0.773mm|CornerRadius=0.159mm|HoleSize=0mm|Usage=FLASHONLY|Rotation=180.000|XOffset=0mm|YOffset=0mm|HoleType=Round|Shape=RoundedRectangle|*
%AMROUNDEDRECTD81*
21,1,0.853,0.456,0,0,180.0*
21,1,0.536,0.773,0,0,180.0*
1,1,0.317,-0.268,0.228*
1,1,0.317,0.268,0.228*
1,1,0.317,0.268,-0.228*
1,1,0.317,-0.268,-0.228*
%
%ADD81ROUNDEDRECTD81*%
G04:AMPARAMS|DCode=82|XSize=0.553mm|YSize=1.903mm|CornerRadius=0.154mm|HoleSize=0mm|Usage=FLASHONLY|Rotation=90.000|XOffset=0mm|YOffset=0mm|HoleType=Round|Shape=RoundedRectangle|*
%AMROUNDEDRECTD82*
21,1,0.553,1.595,0,0,90.0*
21,1,0.245,1.903,0,0,90.0*
1,1,0.308,0.798,0.123*
1,1,0.308,0.798,-0.123*
1,1,0.308,-0.798,-0.123*
1,1,0.308,-0.798,0.123*
%
%ADD82ROUNDEDRECTD82*%
G04:AMPARAMS|DCode=83|XSize=0.853mm|YSize=0.773mm|CornerRadius=0.159mm|HoleSize=0mm|Usage=FLASHONLY|Rotation=90.000|XOffset=0mm|YOffset=0mm|HoleType=Round|Shape=RoundedRectangle|*
%AMROUNDEDRECTD83*
21,1,0.853,0.456,0,0,90.0*
21,1,0.536,0.773,0,0,90.0*
1,1,0.317,0.228,0.268*
1,1,0.317,0.228,-0.268*
1,1,0.317,-0.228,-0.268*
1,1,0.317,-0.228,0.268*
%
%ADD83ROUNDEDRECTD83*%
G04:AMPARAMS|DCode=84|XSize=0.703mm|YSize=1.003mm|CornerRadius=0.227mm|HoleSize=0mm|Usage=FLASHONLY|Rotation=270.000|XOffset=0mm|YOffset=0mm|HoleType=Round|Shape=RoundedRectangle|*
%AMROUNDEDRECTD84*
21,1,0.703,0.550,0,0,270.0*
21,1,0.250,1.003,0,0,270.0*
1,1,0.453,-0.275,-0.125*
1,1,0.453,-0.275,0.125*
1,1,0.453,0.275,0.125*
1,1,0.453,0.275,-0.125*
%
%ADD84ROUNDEDRECTD84*%
G04:AMPARAMS|DCode=85|XSize=1.653mm|YSize=1.353mm|CornerRadius=0.274mm|HoleSize=0mm|Usage=FLASHONLY|Rotation=0.000|XOffset=0mm|YOffset=0mm|HoleType=Round|Shape=RoundedRectangle|*
%AMROUNDEDRECTD85*
21,1,1.653,0.805,0,0,0.0*
21,1,1.105,1.353,0,0,0.0*
1,1,0.548,0.553,-0.403*
1,1,0.548,-0.553,-0.403*
1,1,0.548,-0.553,0.403*
1,1,0.548,0.553,0.403*
%
%ADD85ROUNDEDRECTD85*%
%ADD86O,0.553X1.903*%
G04:AMPARAMS|DCode=87|XSize=0.853mm|YSize=1.403mm|CornerRadius=0.264mm|HoleSize=0mm|Usage=FLASHONLY|Rotation=90.000|XOffset=0mm|YOffset=0mm|HoleType=Round|Shape=RoundedRectangle|*
%AMROUNDEDRECTD87*
21,1,0.853,0.875,0,0,90.0*
21,1,0.325,1.403,0,0,90.0*
1,1,0.528,0.438,0.163*
1,1,0.528,0.438,-0.163*
1,1,0.528,-0.438,-0.163*
1,1,0.528,-0.438,0.163*
%
%ADD87ROUNDEDRECTD87*%
%ADD88R,1.403X0.853*%
G04:AMPARAMS|DCode=89|XSize=0.803mm|YSize=1.403mm|CornerRadius=0.192mm|HoleSize=0mm|Usage=FLASHONLY|Rotation=90.000|XOffset=0mm|YOffset=0mm|HoleType=Round|Shape=RoundedRectangle|*
%AMROUNDEDRECTD89*
21,1,0.803,1.020,0,0,90.0*
21,1,0.420,1.403,0,0,90.0*
1,1,0.383,0.510,0.210*
1,1,0.383,0.510,-0.210*
1,1,0.383,-0.510,-0.210*
1,1,0.383,-0.510,0.210*
%
%ADD89ROUNDEDRECTD89*%
%ADD90R,1.403X0.803*%
G04:AMPARAMS|DCode=91|XSize=1.153mm|YSize=1.103mm|CornerRadius=0.192mm|HoleSize=0mm|Usage=FLASHONLY|Rotation=90.000|XOffset=0mm|YOffset=0mm|HoleType=Round|Shape=RoundedRectangle|*
%AMROUNDEDRECTD91*
21,1,1.153,0.720,0,0,90.0*
21,1,0.770,1.103,0,0,90.0*
1,1,0.383,0.360,0.385*
1,1,0.383,0.360,-0.385*
1,1,0.383,-0.360,-0.385*
1,1,0.383,-0.360,0.385*
%
%ADD91ROUNDEDRECTD91*%
G04:AMPARAMS|DCode=92|XSize=2.003mm|YSize=1.453mm|CornerRadius=0.289mm|HoleSize=0mm|Usage=FLASHONLY|Rotation=180.000|XOffset=0mm|YOffset=0mm|HoleType=Round|Shape=RoundedRectangle|*
%AMROUNDEDRECTD92*
21,1,2.003,0.875,0,0,180.0*
21,1,1.425,1.453,0,0,180.0*
1,1,0.578,-0.713,0.438*
1,1,0.578,0.713,0.438*
1,1,0.578,0.713,-0.438*
1,1,0.578,-0.713,-0.438*
%
%ADD92ROUNDEDRECTD92*%
G04:AMPARAMS|DCode=93|XSize=0.803mm|YSize=1.303mm|CornerRadius=0.252mm|HoleSize=0mm|Usage=FLASHONLY|Rotation=0.000|XOffset=0mm|YOffset=0mm|HoleType=Round|Shape=RoundedRectangle|*
%AMROUNDEDRECTD93*
21,1,0.803,0.800,0,0,0.0*
21,1,0.300,1.303,0,0,0.0*
1,1,0.503,0.150,-0.400*
1,1,0.503,-0.150,-0.400*
1,1,0.503,-0.150,0.400*
1,1,0.503,0.150,0.400*
%
%ADD93ROUNDEDRECTD93*%
G04:AMPARAMS|DCode=94|XSize=2.503mm|YSize=2.003mm|CornerRadius=0.372mm|HoleSize=0mm|Usage=FLASHONLY|Rotation=180.000|XOffset=0mm|YOffset=0mm|HoleType=Round|Shape=RoundedRectangle|*
%AMROUNDEDRECTD94*
21,1,2.503,1.260,0,0,180.0*
21,1,1.760,2.003,0,0,180.0*
1,1,0.743,-0.880,0.630*
1,1,0.743,0.880,0.630*
1,1,0.743,0.880,-0.630*
1,1,0.743,-0.880,-0.630*
%
%ADD94ROUNDEDRECTD94*%
G04:AMPARAMS|DCode=95|XSize=1.103mm|YSize=1.103mm|CornerRadius=0.237mm|HoleSize=0mm|Usage=FLASHONLY|Rotation=270.000|XOffset=0mm|YOffset=0mm|HoleType=Round|Shape=RoundedRectangle|*
%AMROUNDEDRECTD95*
21,1,1.103,0.630,0,0,270.0*
21,1,0.630,1.103,0,0,270.0*
1,1,0.473,-0.315,-0.315*
1,1,0.473,-0.315,0.315*
1,1,0.473,0.315,0.315*
1,1,0.473,0.315,-0.315*
%
%ADD95ROUNDEDRECTD95*%
%ADD96R,0.503X0.883*%
%ADD97R,0.453X0.883*%
%ADD98R,0.933X0.473*%
%ADD99R,1.003X0.503*%
%ADD100R,1.503X1.603*%
G04:AMPARAMS|DCode=101|XSize=0.853mm|YSize=0.773mm|CornerRadius=0.159mm|HoleSize=0mm|Usage=FLASHONLY|Rotation=45.000|XOffset=0mm|YOffset=0mm|HoleType=Round|Shape=RoundedRectangle|*
%AMROUNDEDRECTD101*
21,1,0.853,0.456,0,0,45.0*
21,1,0.536,0.773,0,0,45.0*
1,1,0.317,0.351,0.028*
1,1,0.317,-0.028,-0.351*
1,1,0.317,-0.351,-0.028*
1,1,0.317,0.028,0.351*
%
%ADD101ROUNDEDRECTD101*%
%ADD102C,0.450*%
G04:AMPARAMS|DCode=103|XSize=2.003mm|YSize=1.453mm|CornerRadius=0.289mm|HoleSize=0mm|Usage=FLASHONLY|Rotation=270.000|XOffset=0mm|YOffset=0mm|HoleType=Round|Shape=RoundedRectangle|*
%AMROUNDEDRECTD103*
21,1,2.003,0.875,0,0,270.0*
21,1,1.425,1.453,0,0,270.0*
1,1,0.578,-0.438,-0.713*
1,1,0.578,-0.438,0.713*
1,1,0.578,0.438,0.713*
1,1,0.578,0.438,-0.713*
%
%ADD103ROUNDEDRECTD103*%
%ADD104R,2.003X4.703*%
G04:AMPARAMS|DCode=105|XSize=2.203mm|YSize=1.403mm|CornerRadius=0.222mm|HoleSize=0mm|Usage=FLASHONLY|Rotation=180.000|XOffset=0mm|YOffset=0mm|HoleType=Round|Shape=RoundedRectangle|*
%AMROUNDEDRECTD105*
21,1,2.203,0.960,0,0,180.0*
21,1,1.760,1.403,0,0,180.0*
1,1,0.443,-0.880,0.480*
1,1,0.443,0.880,0.480*
1,1,0.443,0.880,-0.480*
1,1,0.443,-0.880,-0.480*
%
%ADD105ROUNDEDRECTD105*%
G04:AMPARAMS|DCode=106|XSize=2.703mm|YSize=2.403mm|CornerRadius=0.322mm|HoleSize=0mm|Usage=FLASHONLY|Rotation=0.000|XOffset=0mm|YOffset=0mm|HoleType=Round|Shape=RoundedRectangle|*
%AMROUNDEDRECTD106*
21,1,2.703,1.760,0,0,0.0*
21,1,2.060,2.403,0,0,0.0*
1,1,0.643,1.030,-0.880*
1,1,0.643,-1.030,-0.880*
1,1,0.643,-1.030,0.880*
1,1,0.643,1.030,0.880*
%
%ADD106ROUNDEDRECTD106*%
G04:AMPARAMS|DCode=107|XSize=0.54mm|YSize=1.34mm|CornerRadius=0.11mm|HoleSize=0mm|Usage=FLASHONLY|Rotation=180.000|XOffset=0mm|YOffset=0mm|HoleType=Round|Shape=RoundedRectangle|*
%AMROUNDEDRECTD107*
21,1,0.540,1.120,0,0,180.0*
21,1,0.320,1.340,0,0,180.0*
1,1,0.220,-0.160,0.560*
1,1,0.220,0.160,0.560*
1,1,0.220,0.160,-0.560*
1,1,0.220,-0.160,-0.560*
%
%ADD107ROUNDEDRECTD107*%
G04:AMPARAMS|DCode=108|XSize=0.54mm|YSize=1.14mm|CornerRadius=0.11mm|HoleSize=0mm|Usage=FLASHONLY|Rotation=270.000|XOffset=0mm|YOffset=0mm|HoleType=Round|Shape=RoundedRectangle|*
%AMROUNDEDRECTD108*
21,1,0.540,0.920,0,0,270.0*
21,1,0.320,1.140,0,0,270.0*
1,1,0.220,-0.460,-0.160*
1,1,0.220,-0.460,0.160*
1,1,0.220,0.460,0.160*
1,1,0.220,0.460,-0.160*
%
%ADD108ROUNDEDRECTD108*%
G04:AMPARAMS|DCode=109|XSize=0.39mm|YSize=1.04mm|CornerRadius=0.095mm|HoleSize=0mm|Usage=FLASHONLY|Rotation=0.000|XOffset=0mm|YOffset=0mm|HoleType=Round|Shape=RoundedRectangle|*
%AMROUNDEDRECTD109*
21,1,0.390,0.850,0,0,0.0*
21,1,0.200,1.040,0,0,0.0*
1,1,0.190,0.100,-0.425*
1,1,0.190,-0.100,-0.425*
1,1,0.190,-0.100,0.425*
1,1,0.190,0.100,0.425*
%
%ADD109ROUNDEDRECTD109*%
G04:AMPARAMS|DCode=110|XSize=0.54mm|YSize=1.04mm|CornerRadius=0.11mm|HoleSize=0mm|Usage=FLASHONLY|Rotation=270.000|XOffset=0mm|YOffset=0mm|HoleType=Round|Shape=RoundedRectangle|*
%AMROUNDEDRECTD110*
21,1,0.540,0.820,0,0,270.0*
21,1,0.320,1.040,0,0,270.0*
1,1,0.220,-0.410,-0.160*
1,1,0.220,-0.410,0.160*
1,1,0.220,0.410,0.160*
1,1,0.220,0.410,-0.160*
%
%ADD110ROUNDEDRECTD110*%
G04:AMPARAMS|DCode=111|XSize=0.49mm|YSize=1.34mm|CornerRadius=0.105mm|HoleSize=0mm|Usage=FLASHONLY|Rotation=0.000|XOffset=0mm|YOffset=0mm|HoleType=Round|Shape=RoundedRectangle|*
%AMROUNDEDRECTD111*
21,1,0.490,1.130,0,0,0.0*
21,1,0.280,1.340,0,0,0.0*
1,1,0.210,0.140,-0.565*
1,1,0.210,-0.140,-0.565*
1,1,0.210,-0.140,0.565*
1,1,0.210,0.140,0.565*
%
%ADD111ROUNDEDRECTD111*%
G04:AMPARAMS|DCode=112|XSize=0.39mm|YSize=1.04mm|CornerRadius=0.095mm|HoleSize=0mm|Usage=FLASHONLY|Rotation=270.000|XOffset=0mm|YOffset=0mm|HoleType=Round|Shape=RoundedRectangle|*
%AMROUNDEDRECTD112*
21,1,0.390,0.850,0,0,270.0*
21,1,0.200,1.040,0,0,270.0*
1,1,0.190,-0.425,-0.100*
1,1,0.190,-0.425,0.100*
1,1,0.190,0.425,0.100*
1,1,0.190,0.425,-0.100*
%
%ADD112ROUNDEDRECTD112*%
G04:AMPARAMS|DCode=113|XSize=0.44mm|YSize=1.04mm|CornerRadius=0.1mm|HoleSize=0mm|Usage=FLASHONLY|Rotation=270.000|XOffset=0mm|YOffset=0mm|HoleType=Round|Shape=RoundedRectangle|*
%AMROUNDEDRECTD113*
21,1,0.440,0.840,0,0,270.0*
21,1,0.240,1.040,0,0,270.0*
1,1,0.200,-0.420,-0.120*
1,1,0.200,-0.420,0.120*
1,1,0.200,0.420,0.120*
1,1,0.200,0.420,-0.120*
%
%ADD113ROUNDEDRECTD113*%
G04:AMPARAMS|DCode=114|XSize=0.54mm|YSize=2.74mm|CornerRadius=0.11mm|HoleSize=0mm|Usage=FLASHONLY|Rotation=270.000|XOffset=0mm|YOffset=0mm|HoleType=Round|Shape=RoundedRectangle|*
%AMROUNDEDRECTD114*
21,1,0.540,2.520,0,0,270.0*
21,1,0.320,2.740,0,0,270.0*
1,1,0.220,-1.260,-0.160*
1,1,0.220,-1.260,0.160*
1,1,0.220,1.260,0.160*
1,1,0.220,1.260,-0.160*
%
%ADD114ROUNDEDRECTD114*%
%ADD115R,2.363X2.363*%
%ADD116O,1.403X0.553*%
%ADD117O,0.553X1.403*%
G04:AMPARAMS|DCode=118|XSize=1.553mm|YSize=1.353mm|CornerRadius=0.274mm|HoleSize=0mm|Usage=FLASHONLY|Rotation=0.000|XOffset=0mm|YOffset=0mm|HoleType=Round|Shape=RoundedRectangle|*
%AMROUNDEDRECTD118*
21,1,1.553,0.805,0,0,0.0*
21,1,1.005,1.353,0,0,0.0*
1,1,0.548,0.502,-0.403*
1,1,0.548,-0.502,-0.403*
1,1,0.548,-0.502,0.403*
1,1,0.548,0.502,0.403*
%
%ADD118ROUNDEDRECTD118*%
G04:AMPARAMS|DCode=119|XSize=0.903mm|YSize=1.003mm|CornerRadius=0.277mm|HoleSize=0mm|Usage=FLASHONLY|Rotation=270.000|XOffset=0mm|YOffset=0mm|HoleType=Round|Shape=RoundedRectangle|*
%AMROUNDEDRECTD119*
21,1,0.903,0.450,0,0,270.0*
21,1,0.350,1.003,0,0,270.0*
1,1,0.553,-0.225,-0.175*
1,1,0.553,-0.225,0.175*
1,1,0.553,0.225,0.175*
1,1,0.553,0.225,-0.175*
%
%ADD119ROUNDEDRECTD119*%
G04:AMPARAMS|DCode=120|XSize=0.823mm|YSize=0.863mm|CornerRadius=0.164mm|HoleSize=0mm|Usage=FLASHONLY|Rotation=45.000|XOffset=0mm|YOffset=0mm|HoleType=Round|Shape=RoundedRectangle|*
%AMROUNDEDRECTD120*
21,1,0.823,0.536,0,0,45.0*
21,1,0.496,0.863,0,0,45.0*
1,1,0.327,0.365,-0.014*
1,1,0.327,0.014,-0.365*
1,1,0.327,-0.365,0.014*
1,1,0.327,-0.014,0.365*
%
%ADD120ROUNDEDRECTD120*%
G04:AMPARAMS|DCode=121|XSize=5.303mm|YSize=4.303mm|CornerRadius=0.307mm|HoleSize=0mm|Usage=FLASHONLY|Rotation=180.000|XOffset=0mm|YOffset=0mm|HoleType=Round|Shape=RoundedRectangle|*
%AMROUNDEDRECTD121*
21,1,5.303,3.690,0,0,180.0*
21,1,4.690,4.303,0,0,180.0*
1,1,0.613,-2.345,1.845*
1,1,0.613,2.345,1.845*
1,1,0.613,2.345,-1.845*
1,1,0.613,-2.345,-1.845*
%
%ADD121ROUNDEDRECTD121*%
G04:AMPARAMS|DCode=122|XSize=3.703mm|YSize=1.803mm|CornerRadius=0.342mm|HoleSize=0mm|Usage=FLASHONLY|Rotation=0.000|XOffset=0mm|YOffset=0mm|HoleType=Round|Shape=RoundedRectangle|*
%AMROUNDEDRECTD122*
21,1,3.703,1.120,0,0,0.0*
21,1,3.020,1.803,0,0,0.0*
1,1,0.683,1.510,-0.560*
1,1,0.683,-1.510,-0.560*
1,1,0.683,-1.510,0.560*
1,1,0.683,1.510,0.560*
%
%ADD122ROUNDEDRECTD122*%
G04:AMPARAMS|DCode=123|XSize=1.503mm|YSize=1.403mm|CornerRadius=0.222mm|HoleSize=0mm|Usage=FLASHONLY|Rotation=180.000|XOffset=0mm|YOffset=0mm|HoleType=Round|Shape=RoundedRectangle|*
%AMROUNDEDRECTD123*
21,1,1.503,0.960,0,0,180.0*
21,1,1.060,1.403,0,0,180.0*
1,1,0.443,-0.530,0.480*
1,1,0.443,0.530,0.480*
1,1,0.443,0.530,-0.480*
1,1,0.443,-0.530,-0.480*
%
%ADD123ROUNDEDRECTD123*%
%ADD124R,0.390X0.940*%
%ADD125R,0.453X1.103*%
%ADD126R,1.503X0.653*%
%ADD127O,1.503X0.653*%
%ADD128R,1.203X1.103*%
%ADD129O,1.703X0.503*%
%ADD130O,0.503X1.703*%
G04:AMPARAMS|DCode=131|XSize=0.803mm|YSize=1.403mm|CornerRadius=0.192mm|HoleSize=0mm|Usage=FLASHONLY|Rotation=0.000|XOffset=0mm|YOffset=0mm|HoleType=Round|Shape=RoundedRectangle|*
%AMROUNDEDRECTD131*
21,1,0.803,1.020,0,0,0.0*
21,1,0.420,1.403,0,0,0.0*
1,1,0.383,0.210,-0.510*
1,1,0.383,-0.210,-0.510*
1,1,0.383,-0.210,0.510*
1,1,0.383,0.210,0.510*
%
%ADD131ROUNDEDRECTD131*%
%ADD132R,0.803X1.403*%
G04:AMPARAMS|DCode=133|XSize=0.803mm|YSize=1.303mm|CornerRadius=0.252mm|HoleSize=0mm|Usage=FLASHONLY|Rotation=90.000|XOffset=0mm|YOffset=0mm|HoleType=Round|Shape=RoundedRectangle|*
%AMROUNDEDRECTD133*
21,1,0.803,0.800,0,0,90.0*
21,1,0.300,1.303,0,0,90.0*
1,1,0.503,0.400,0.150*
1,1,0.503,0.400,-0.150*
1,1,0.503,-0.400,-0.150*
1,1,0.503,-0.400,0.150*
%
%ADD133ROUNDEDRECTD133*%
G04:AMPARAMS|DCode=134|XSize=1.553mm|YSize=1.353mm|CornerRadius=0.274mm|HoleSize=0mm|Usage=FLASHONLY|Rotation=270.000|XOffset=0mm|YOffset=0mm|HoleType=Round|Shape=RoundedRectangle|*
%AMROUNDEDRECTD134*
21,1,1.553,0.805,0,0,270.0*
21,1,1.005,1.353,0,0,270.0*
1,1,0.548,-0.403,-0.502*
1,1,0.548,-0.403,0.502*
1,1,0.548,0.403,0.502*
1,1,0.548,0.403,-0.502*
%
%ADD134ROUNDEDRECTD134*%
%ADD135C,2.500*%
%ADD136C,6.203*%
%ADD137C,2.503*%
G04:AMPARAMS|DCode=138|XSize=2.503mm|YSize=2.503mm|CornerRadius=0.217mm|HoleSize=0mm|Usage=FLASHONLY|Rotation=270.000|XOffset=0mm|YOffset=0mm|HoleType=Round|Shape=RoundedRectangle|*
%AMROUNDEDRECTD138*
21,1,2.503,2.070,0,0,270.0*
21,1,2.070,2.503,0,0,270.0*
1,1,0.433,-1.035,-1.035*
1,1,0.433,-1.035,1.035*
1,1,0.433,1.035,1.035*
1,1,0.433,1.035,-1.035*
%
%ADD138ROUNDEDRECTD138*%
%ADD139C,0.803*%
%ADD140C,2.003*%
%ADD141C,2.703*%
%ADD142R,2.703X2.703*%
%ADD143O,1.103X2.403*%
%ADD144C,1.803*%
%ADD145R,1.803X1.803*%
%ADD146C,1.503*%
%ADD147C,2.203*%
%ADD148R,2.503X2.503*%
%ADD149O,2.203X2.503*%
%ADD150R,2.203X2.503*%
%ADD151R,2.203X2.203*%
%ADD152O,4.203X2.203*%
%ADD153O,3.203X2.203*%
D20*
X110975Y11825D02*
D03*
Y11425D02*
D03*
X58350Y55675D02*
D03*
Y56075D02*
D03*
X316125D02*
D03*
Y55675D02*
D03*
X279300Y56075D02*
D03*
Y55675D02*
D03*
X242475Y56075D02*
D03*
Y55675D02*
D03*
X205650Y56075D02*
D03*
Y55675D02*
D03*
X168825Y56075D02*
D03*
Y55675D02*
D03*
X132000Y56075D02*
D03*
Y55675D02*
D03*
X95175Y56075D02*
D03*
Y55675D02*
D03*
D76*
X107800Y7575D02*
D03*
Y5975D02*
D03*
X110950Y9250D02*
D03*
Y10850D02*
D03*
X112450Y9250D02*
D03*
Y10850D02*
D03*
X56275Y23225D02*
D03*
Y24825D02*
D03*
X52625Y24225D02*
D03*
Y25825D02*
D03*
X10500Y67700D02*
D03*
Y66100D02*
D03*
X41000Y17400D02*
D03*
Y19000D02*
D03*
X56325Y18450D02*
D03*
Y20050D02*
D03*
X313900Y52375D02*
D03*
Y50775D02*
D03*
X277075Y52375D02*
D03*
Y50775D02*
D03*
X240250Y52375D02*
D03*
Y50775D02*
D03*
X203425Y52375D02*
D03*
Y50775D02*
D03*
X166600Y52375D02*
D03*
Y50775D02*
D03*
X129775Y52375D02*
D03*
Y50775D02*
D03*
X92950Y52375D02*
D03*
Y50775D02*
D03*
X56125Y52375D02*
D03*
Y50775D02*
D03*
X298575Y35475D02*
D03*
Y33875D02*
D03*
X306750Y52275D02*
D03*
Y50675D02*
D03*
X261750Y35475D02*
D03*
Y33875D02*
D03*
X269925Y52275D02*
D03*
Y50675D02*
D03*
X224925Y35475D02*
D03*
Y33875D02*
D03*
X233100Y52275D02*
D03*
Y50675D02*
D03*
X188100Y35475D02*
D03*
Y33875D02*
D03*
X196275Y52275D02*
D03*
Y50675D02*
D03*
X151275Y35475D02*
D03*
Y33875D02*
D03*
X159450Y52275D02*
D03*
Y50675D02*
D03*
X114450Y35475D02*
D03*
Y33875D02*
D03*
X122625Y52275D02*
D03*
Y50675D02*
D03*
X77625Y35475D02*
D03*
Y33875D02*
D03*
X85800Y52275D02*
D03*
Y50675D02*
D03*
X40800Y35475D02*
D03*
Y33875D02*
D03*
X48975Y52275D02*
D03*
Y50675D02*
D03*
X14375Y62075D02*
D03*
Y63675D02*
D03*
D77*
X109150Y9765D02*
D03*
Y8885D02*
D03*
X106500Y8165D02*
D03*
Y7285D02*
D03*
X108100Y8835D02*
D03*
Y9715D02*
D03*
X106600Y9710D02*
D03*
Y10590D02*
D03*
X124475Y4655D02*
D03*
Y3775D02*
D03*
X114175Y7325D02*
D03*
Y8205D02*
D03*
X120400Y2745D02*
D03*
Y1865D02*
D03*
X119400Y9425D02*
D03*
Y10305D02*
D03*
X125450Y7500D02*
D03*
Y8380D02*
D03*
X114225Y4755D02*
D03*
Y3875D02*
D03*
X121325Y9425D02*
D03*
Y10305D02*
D03*
X119375Y2745D02*
D03*
Y1865D02*
D03*
X121275Y19775D02*
D03*
Y20655D02*
D03*
X119325Y13095D02*
D03*
Y12215D02*
D03*
X125400Y17850D02*
D03*
Y18730D02*
D03*
X114175Y15105D02*
D03*
Y14225D02*
D03*
X120350Y13095D02*
D03*
Y12215D02*
D03*
X124425Y15005D02*
D03*
Y14125D02*
D03*
X119350Y19775D02*
D03*
Y20655D02*
D03*
X114125Y17675D02*
D03*
Y18555D02*
D03*
X305275Y54615D02*
D03*
Y53735D02*
D03*
X268450Y54615D02*
D03*
Y53735D02*
D03*
X231625Y54615D02*
D03*
Y53735D02*
D03*
X194800Y54615D02*
D03*
Y53735D02*
D03*
X157975Y54615D02*
D03*
Y53735D02*
D03*
X121150Y54615D02*
D03*
Y53735D02*
D03*
X84325Y54615D02*
D03*
Y53735D02*
D03*
X47500Y54615D02*
D03*
Y53735D02*
D03*
X307250Y63090D02*
D03*
Y62210D02*
D03*
X319775Y30735D02*
D03*
Y31615D02*
D03*
X312650Y53265D02*
D03*
Y52385D02*
D03*
X312675Y51390D02*
D03*
Y50510D02*
D03*
X270425Y63090D02*
D03*
Y62210D02*
D03*
X282950Y30735D02*
D03*
Y31615D02*
D03*
X275825Y53265D02*
D03*
Y52385D02*
D03*
X275850Y51390D02*
D03*
Y50510D02*
D03*
X233600Y63090D02*
D03*
Y62210D02*
D03*
X246125Y30735D02*
D03*
Y31615D02*
D03*
X239000Y53265D02*
D03*
Y52385D02*
D03*
X239025Y51390D02*
D03*
Y50510D02*
D03*
X196775Y63090D02*
D03*
Y62210D02*
D03*
X209300Y30735D02*
D03*
Y31615D02*
D03*
X202175Y53265D02*
D03*
Y52385D02*
D03*
X202200Y51390D02*
D03*
Y50510D02*
D03*
X159950Y63090D02*
D03*
Y62210D02*
D03*
X172475Y30735D02*
D03*
Y31615D02*
D03*
X165350Y53265D02*
D03*
Y52385D02*
D03*
X165375Y51390D02*
D03*
Y50510D02*
D03*
X123125Y63090D02*
D03*
Y62210D02*
D03*
X135650Y30735D02*
D03*
Y31615D02*
D03*
X128525Y53265D02*
D03*
Y52385D02*
D03*
X128550Y51390D02*
D03*
Y50510D02*
D03*
X86300Y63090D02*
D03*
Y62210D02*
D03*
X98825Y30735D02*
D03*
Y31615D02*
D03*
X91700Y53265D02*
D03*
Y52385D02*
D03*
X91725Y51390D02*
D03*
Y50510D02*
D03*
X49475Y63090D02*
D03*
Y62210D02*
D03*
X62000Y30735D02*
D03*
Y31615D02*
D03*
X54875Y53265D02*
D03*
Y52385D02*
D03*
X54900Y51390D02*
D03*
Y50510D02*
D03*
X57625Y18690D02*
D03*
Y17810D02*
D03*
X62650Y18365D02*
D03*
Y17485D02*
D03*
X85470Y4525D02*
D03*
Y5405D02*
D03*
X91050Y10410D02*
D03*
Y11290D02*
D03*
X58675Y18690D02*
D03*
Y17810D02*
D03*
D78*
X111150Y7750D02*
D03*
X109250D02*
D03*
X110200Y5750D02*
D03*
X50525Y9725D02*
D03*
X48625D02*
D03*
X49575Y7725D02*
D03*
D79*
X109423Y11000D02*
D03*
X107927D02*
D03*
X55873Y21700D02*
D03*
X54377D02*
D03*
X315298Y61875D02*
D03*
X313802D02*
D03*
X278473D02*
D03*
X276977D02*
D03*
X241648D02*
D03*
X240152D02*
D03*
X204823D02*
D03*
X203327D02*
D03*
X167998D02*
D03*
X166502D02*
D03*
X131173D02*
D03*
X129677D02*
D03*
X94348D02*
D03*
X92852D02*
D03*
X57523D02*
D03*
X56027D02*
D03*
X59348Y19975D02*
D03*
X57852D02*
D03*
D80*
X125415Y9415D02*
D03*
X124535D02*
D03*
X114235Y6265D02*
D03*
X115115D02*
D03*
X125440Y2740D02*
D03*
X124560D02*
D03*
X114185Y9240D02*
D03*
X115065D02*
D03*
X114235Y2840D02*
D03*
X115115D02*
D03*
X125365Y19765D02*
D03*
X124485D02*
D03*
X114185Y13190D02*
D03*
X115065D02*
D03*
X125390Y13090D02*
D03*
X124510D02*
D03*
X114135Y19590D02*
D03*
X115015D02*
D03*
X114185Y16615D02*
D03*
X115065D02*
D03*
X17135Y41825D02*
D03*
X18015D02*
D03*
X152005Y16100D02*
D03*
X151125D02*
D03*
X21635Y55675D02*
D03*
X22515D02*
D03*
X301860Y49025D02*
D03*
X302740D02*
D03*
X265035D02*
D03*
X265915D02*
D03*
X228210D02*
D03*
X229090D02*
D03*
X191385D02*
D03*
X192265D02*
D03*
X154560D02*
D03*
X155440D02*
D03*
X117735D02*
D03*
X118615D02*
D03*
X80910D02*
D03*
X81790D02*
D03*
X44085D02*
D03*
X44965D02*
D03*
X305805Y46875D02*
D03*
X306685D02*
D03*
X268980D02*
D03*
X269860D02*
D03*
X232155D02*
D03*
X233035D02*
D03*
X195330D02*
D03*
X196210D02*
D03*
X158505D02*
D03*
X159385D02*
D03*
X121680D02*
D03*
X122560D02*
D03*
X84855D02*
D03*
X85735D02*
D03*
X48030D02*
D03*
X48910D02*
D03*
X90915Y5975D02*
D03*
X90035D02*
D03*
X62740Y16125D02*
D03*
X61860D02*
D03*
X310585Y42650D02*
D03*
X311465D02*
D03*
X314440Y49400D02*
D03*
X313560D02*
D03*
X311635Y49400D02*
D03*
X312515D02*
D03*
X273760Y42650D02*
D03*
X274640D02*
D03*
X277615Y49400D02*
D03*
X276735D02*
D03*
X274810Y49400D02*
D03*
X275690D02*
D03*
X236935Y42650D02*
D03*
X237815D02*
D03*
X240790Y49400D02*
D03*
X239910D02*
D03*
X237985Y49400D02*
D03*
X238865D02*
D03*
X200110Y42650D02*
D03*
X200990D02*
D03*
X203965Y49400D02*
D03*
X203085D02*
D03*
X201160Y49400D02*
D03*
X202040D02*
D03*
X163285Y42650D02*
D03*
X164165D02*
D03*
X167140Y49400D02*
D03*
X166260D02*
D03*
X164335Y49400D02*
D03*
X165215D02*
D03*
X126460Y42650D02*
D03*
X127340D02*
D03*
X130315Y49400D02*
D03*
X129435D02*
D03*
X127510Y49400D02*
D03*
X128390D02*
D03*
X89635Y42650D02*
D03*
X90515D02*
D03*
X93490Y49400D02*
D03*
X92610D02*
D03*
X90685Y49400D02*
D03*
X91565D02*
D03*
X52810Y42650D02*
D03*
X53690D02*
D03*
X56665Y49400D02*
D03*
X55785D02*
D03*
X53860Y49400D02*
D03*
X54740D02*
D03*
X87335Y17150D02*
D03*
X88215D02*
D03*
X74869Y17859D02*
D03*
X75749D02*
D03*
X224635Y17150D02*
D03*
X225515D02*
D03*
X298360Y17200D02*
D03*
X299240D02*
D03*
X43115Y18425D02*
D03*
X42235D02*
D03*
X46035Y21025D02*
D03*
X46915D02*
D03*
D81*
X125450Y4665D02*
D03*
Y3755D02*
D03*
X115150Y7310D02*
D03*
Y8220D02*
D03*
X123550Y1935D02*
D03*
Y2845D02*
D03*
X116200Y10295D02*
D03*
Y9385D02*
D03*
X122600Y1940D02*
D03*
Y2850D02*
D03*
X117125Y10305D02*
D03*
Y9395D02*
D03*
X121375Y2785D02*
D03*
Y1875D02*
D03*
X118400Y9360D02*
D03*
Y10270D02*
D03*
X124475Y7465D02*
D03*
Y8375D02*
D03*
X115200Y4820D02*
D03*
Y3910D02*
D03*
X123525Y10295D02*
D03*
Y9385D02*
D03*
X116125Y1910D02*
D03*
Y2820D02*
D03*
X122600Y10280D02*
D03*
Y9370D02*
D03*
X117075Y1885D02*
D03*
Y2795D02*
D03*
X120375Y9365D02*
D03*
Y10275D02*
D03*
X118375Y2760D02*
D03*
Y1850D02*
D03*
X120325Y19715D02*
D03*
Y20625D02*
D03*
X118325Y13110D02*
D03*
Y12200D02*
D03*
X118350Y19710D02*
D03*
Y20620D02*
D03*
X122550Y20630D02*
D03*
Y19720D02*
D03*
X117025Y12235D02*
D03*
Y13145D02*
D03*
X123475Y20645D02*
D03*
Y19735D02*
D03*
X116075Y12260D02*
D03*
Y13170D02*
D03*
X117075Y20655D02*
D03*
Y19745D02*
D03*
X124425Y17815D02*
D03*
Y18725D02*
D03*
X116150Y20645D02*
D03*
Y19735D02*
D03*
X115150Y15170D02*
D03*
Y14260D02*
D03*
X121325Y13135D02*
D03*
Y12225D02*
D03*
X122550Y12290D02*
D03*
Y13200D02*
D03*
X115100Y17660D02*
D03*
Y18570D02*
D03*
X123500Y12285D02*
D03*
Y13195D02*
D03*
X125400Y15015D02*
D03*
Y14105D02*
D03*
X64650Y21580D02*
D03*
Y20670D02*
D03*
X68350Y21580D02*
D03*
Y20670D02*
D03*
X50350Y52175D02*
D03*
Y51265D02*
D03*
X27425Y55585D02*
D03*
Y54675D02*
D03*
X26500Y55585D02*
D03*
Y54675D02*
D03*
X25550Y55585D02*
D03*
Y54675D02*
D03*
X24600Y55585D02*
D03*
Y54675D02*
D03*
X39825Y18370D02*
D03*
Y19280D02*
D03*
X317250Y38345D02*
D03*
Y39255D02*
D03*
X280425Y38345D02*
D03*
Y39255D02*
D03*
X243600Y38345D02*
D03*
Y39255D02*
D03*
X206775Y38345D02*
D03*
Y39255D02*
D03*
X169950Y38345D02*
D03*
Y39255D02*
D03*
X133125Y38345D02*
D03*
Y39255D02*
D03*
X96300Y38345D02*
D03*
Y39255D02*
D03*
X59475Y38345D02*
D03*
Y39255D02*
D03*
X304600Y55570D02*
D03*
Y56480D02*
D03*
X267775Y55570D02*
D03*
Y56480D02*
D03*
X230950Y55570D02*
D03*
Y56480D02*
D03*
X194125Y55570D02*
D03*
Y56480D02*
D03*
X157300Y55570D02*
D03*
Y56480D02*
D03*
X120475Y55570D02*
D03*
Y56480D02*
D03*
X83650Y55570D02*
D03*
Y56480D02*
D03*
X46825Y55570D02*
D03*
Y56480D02*
D03*
X306350Y48780D02*
D03*
Y47870D02*
D03*
X303350Y54320D02*
D03*
Y55230D02*
D03*
X304300Y54655D02*
D03*
Y53745D02*
D03*
X269525Y48780D02*
D03*
Y47870D02*
D03*
X266525Y54320D02*
D03*
Y55230D02*
D03*
X267475Y54655D02*
D03*
Y53745D02*
D03*
X232700Y48780D02*
D03*
Y47870D02*
D03*
X229700Y54320D02*
D03*
Y55230D02*
D03*
X230650Y54655D02*
D03*
Y53745D02*
D03*
X195875Y48780D02*
D03*
Y47870D02*
D03*
X192875Y54320D02*
D03*
Y55230D02*
D03*
X193825Y54655D02*
D03*
Y53745D02*
D03*
X159050Y48780D02*
D03*
Y47870D02*
D03*
X156050Y54320D02*
D03*
Y55230D02*
D03*
X157000Y54655D02*
D03*
Y53745D02*
D03*
X122225Y48780D02*
D03*
Y47870D02*
D03*
X119225Y54320D02*
D03*
Y55230D02*
D03*
X120175Y54655D02*
D03*
Y53745D02*
D03*
X85400Y48780D02*
D03*
Y47870D02*
D03*
X82400Y54320D02*
D03*
Y55230D02*
D03*
X83350Y54655D02*
D03*
Y53745D02*
D03*
X48575Y48780D02*
D03*
Y47870D02*
D03*
X45575Y54320D02*
D03*
Y55230D02*
D03*
X46525Y54655D02*
D03*
Y53745D02*
D03*
X97800Y19255D02*
D03*
Y18345D02*
D03*
X98750Y19250D02*
D03*
Y18340D02*
D03*
X55100Y5255D02*
D03*
Y4345D02*
D03*
X55100Y7075D02*
D03*
Y6165D02*
D03*
X56075Y7080D02*
D03*
Y6170D02*
D03*
X302875Y41295D02*
D03*
Y42205D02*
D03*
X288900Y55030D02*
D03*
Y54120D02*
D03*
X309025Y51270D02*
D03*
Y52180D02*
D03*
X308125Y51265D02*
D03*
Y52175D02*
D03*
X266050Y41295D02*
D03*
Y42205D02*
D03*
X252075Y55030D02*
D03*
Y54120D02*
D03*
X272200Y51270D02*
D03*
Y52180D02*
D03*
X271300Y51265D02*
D03*
Y52175D02*
D03*
X229225Y41295D02*
D03*
Y42205D02*
D03*
X215250Y55030D02*
D03*
Y54120D02*
D03*
X235375Y51270D02*
D03*
Y52180D02*
D03*
X234475Y51265D02*
D03*
Y52175D02*
D03*
X192400Y41295D02*
D03*
Y42205D02*
D03*
X178425Y55030D02*
D03*
Y54120D02*
D03*
X198550Y51270D02*
D03*
Y52180D02*
D03*
X197650Y51265D02*
D03*
Y52175D02*
D03*
X155575Y41295D02*
D03*
Y42205D02*
D03*
X141600Y55030D02*
D03*
Y54120D02*
D03*
X161725Y51270D02*
D03*
Y52180D02*
D03*
X160825Y51265D02*
D03*
Y52175D02*
D03*
X118750Y41295D02*
D03*
Y42205D02*
D03*
X104775Y55030D02*
D03*
Y54120D02*
D03*
X124900Y51270D02*
D03*
Y52180D02*
D03*
X124000Y51265D02*
D03*
Y52175D02*
D03*
X81925Y41295D02*
D03*
Y42205D02*
D03*
X67950Y55030D02*
D03*
Y54120D02*
D03*
X88075Y51270D02*
D03*
Y52180D02*
D03*
X87175Y51265D02*
D03*
Y52175D02*
D03*
X45100Y41295D02*
D03*
Y42205D02*
D03*
X31125Y55030D02*
D03*
Y54120D02*
D03*
X51250Y51270D02*
D03*
Y52180D02*
D03*
X71900Y20230D02*
D03*
Y19320D02*
D03*
X65975Y20670D02*
D03*
Y21580D02*
D03*
X66925Y20670D02*
D03*
Y21580D02*
D03*
X100175Y18505D02*
D03*
Y17595D02*
D03*
X73325Y10545D02*
D03*
Y11455D02*
D03*
X11100Y55295D02*
D03*
Y56205D02*
D03*
X37300Y26320D02*
D03*
Y27230D02*
D03*
X37300Y25385D02*
D03*
Y24475D02*
D03*
D82*
X116875Y8040D02*
D03*
Y7390D02*
D03*
Y6740D02*
D03*
Y6090D02*
D03*
Y5440D02*
D03*
Y4790D02*
D03*
Y4140D02*
D03*
X122775Y8040D02*
D03*
Y7390D02*
D03*
Y6740D02*
D03*
Y6090D02*
D03*
Y5440D02*
D03*
Y4790D02*
D03*
Y4140D02*
D03*
X116825Y18390D02*
D03*
Y17740D02*
D03*
Y17090D02*
D03*
Y16440D02*
D03*
Y15790D02*
D03*
Y15140D02*
D03*
Y14490D02*
D03*
X122725Y18390D02*
D03*
Y17740D02*
D03*
Y17090D02*
D03*
Y16440D02*
D03*
Y15790D02*
D03*
Y15140D02*
D03*
Y14490D02*
D03*
D83*
X22530Y53775D02*
D03*
X21620D02*
D03*
X52705Y22650D02*
D03*
X51795D02*
D03*
X50875Y22675D02*
D03*
X49965D02*
D03*
X47205Y43325D02*
D03*
X46295D02*
D03*
X306270Y54650D02*
D03*
X307180D02*
D03*
X302770Y56750D02*
D03*
X303680D02*
D03*
X309120Y59225D02*
D03*
X310030D02*
D03*
X269445Y54650D02*
D03*
X270355D02*
D03*
X265945Y56750D02*
D03*
X266855D02*
D03*
X272295Y59225D02*
D03*
X273205D02*
D03*
X232620Y54650D02*
D03*
X233530D02*
D03*
X229120Y56750D02*
D03*
X230030D02*
D03*
X235470Y59225D02*
D03*
X236380D02*
D03*
X195795Y54650D02*
D03*
X196705D02*
D03*
X192295Y56750D02*
D03*
X193205D02*
D03*
X198645Y59225D02*
D03*
X199555D02*
D03*
X158970Y54650D02*
D03*
X159880D02*
D03*
X155470Y56750D02*
D03*
X156380D02*
D03*
X161820Y59225D02*
D03*
X162730D02*
D03*
X122145Y54650D02*
D03*
X123055D02*
D03*
X118645Y56750D02*
D03*
X119555D02*
D03*
X124995Y59225D02*
D03*
X125905D02*
D03*
X85320Y54650D02*
D03*
X86230D02*
D03*
X81820Y56750D02*
D03*
X82730D02*
D03*
X88170Y59225D02*
D03*
X89080D02*
D03*
X48495Y54650D02*
D03*
X49405D02*
D03*
X44995Y56750D02*
D03*
X45905D02*
D03*
X51345Y59225D02*
D03*
X52255D02*
D03*
X22530Y54700D02*
D03*
X21620D02*
D03*
X42220Y19425D02*
D03*
X43130D02*
D03*
X303770Y49525D02*
D03*
X304680D02*
D03*
X266945D02*
D03*
X267855D02*
D03*
X230120D02*
D03*
X231030D02*
D03*
X193295D02*
D03*
X194205D02*
D03*
X156470D02*
D03*
X157380D02*
D03*
X119645D02*
D03*
X120555D02*
D03*
X82820D02*
D03*
X83730D02*
D03*
X45995D02*
D03*
X46905D02*
D03*
X304495Y47850D02*
D03*
X305405D02*
D03*
X301500Y50000D02*
D03*
X302410D02*
D03*
X303895Y46900D02*
D03*
X304805D02*
D03*
X304070Y43325D02*
D03*
X304980D02*
D03*
X267670Y47850D02*
D03*
X268580D02*
D03*
X264675Y50000D02*
D03*
X265585D02*
D03*
X267070Y46900D02*
D03*
X267980D02*
D03*
X267245Y43325D02*
D03*
X268155D02*
D03*
X230845Y47850D02*
D03*
X231755D02*
D03*
X227850Y50000D02*
D03*
X228760D02*
D03*
X230245Y46900D02*
D03*
X231155D02*
D03*
X230420Y43325D02*
D03*
X231330D02*
D03*
X194020Y47850D02*
D03*
X194930D02*
D03*
X191025Y50000D02*
D03*
X191935D02*
D03*
X193420Y46900D02*
D03*
X194330D02*
D03*
X193595Y43325D02*
D03*
X194505D02*
D03*
X157195Y47850D02*
D03*
X158105D02*
D03*
X154200Y50000D02*
D03*
X155110D02*
D03*
X156595Y46900D02*
D03*
X157505D02*
D03*
X156770Y43325D02*
D03*
X157680D02*
D03*
X120370Y47850D02*
D03*
X121280D02*
D03*
X117375Y50000D02*
D03*
X118285D02*
D03*
X119770Y46900D02*
D03*
X120680D02*
D03*
X119945Y43325D02*
D03*
X120855D02*
D03*
X83545Y47850D02*
D03*
X84455D02*
D03*
X80550Y50000D02*
D03*
X81460D02*
D03*
X82945Y46900D02*
D03*
X83855D02*
D03*
X83120Y43325D02*
D03*
X84030D02*
D03*
X46720Y47850D02*
D03*
X47630D02*
D03*
X43725Y50000D02*
D03*
X44635D02*
D03*
X46120Y46900D02*
D03*
X47030D02*
D03*
X51845Y10450D02*
D03*
X52755D02*
D03*
X313380Y42625D02*
D03*
X312470D02*
D03*
X311605Y46625D02*
D03*
X310695D02*
D03*
X313430D02*
D03*
X312520D02*
D03*
X308095Y53200D02*
D03*
X309005D02*
D03*
X306245Y53700D02*
D03*
X307155D02*
D03*
X308145Y50325D02*
D03*
X309055D02*
D03*
X308145Y49400D02*
D03*
X309055D02*
D03*
X276555Y42625D02*
D03*
X275645D02*
D03*
X274780Y46625D02*
D03*
X273870D02*
D03*
X276605D02*
D03*
X275695D02*
D03*
X271270Y53200D02*
D03*
X272180D02*
D03*
X269420Y53700D02*
D03*
X270330D02*
D03*
X271320Y50325D02*
D03*
X272230D02*
D03*
X271320Y49400D02*
D03*
X272230D02*
D03*
X239730Y42625D02*
D03*
X238820D02*
D03*
X237955Y46625D02*
D03*
X237045D02*
D03*
X239780D02*
D03*
X238870D02*
D03*
X234445Y53200D02*
D03*
X235355D02*
D03*
X232595Y53700D02*
D03*
X233505D02*
D03*
X234495Y50325D02*
D03*
X235405D02*
D03*
X234495Y49400D02*
D03*
X235405D02*
D03*
X202905Y42625D02*
D03*
X201995D02*
D03*
X201130Y46625D02*
D03*
X200220D02*
D03*
X202955D02*
D03*
X202045D02*
D03*
X197620Y53200D02*
D03*
X198530D02*
D03*
X195770Y53700D02*
D03*
X196680D02*
D03*
X197670Y50325D02*
D03*
X198580D02*
D03*
X197670Y49400D02*
D03*
X198580D02*
D03*
X166080Y42625D02*
D03*
X165170D02*
D03*
X164305Y46625D02*
D03*
X163395D02*
D03*
X166130D02*
D03*
X165220D02*
D03*
X160795Y53200D02*
D03*
X161705D02*
D03*
X158945Y53700D02*
D03*
X159855D02*
D03*
X160845Y50325D02*
D03*
X161755D02*
D03*
X160845Y49400D02*
D03*
X161755D02*
D03*
X129255Y42625D02*
D03*
X128345D02*
D03*
X127480Y46625D02*
D03*
X126570D02*
D03*
X129305D02*
D03*
X128395D02*
D03*
X123970Y53200D02*
D03*
X124880D02*
D03*
X122120Y53700D02*
D03*
X123030D02*
D03*
X124020Y50325D02*
D03*
X124930D02*
D03*
X124020Y49400D02*
D03*
X124930D02*
D03*
X92430Y42625D02*
D03*
X91520D02*
D03*
X90655Y46625D02*
D03*
X89745D02*
D03*
X92480D02*
D03*
X91570D02*
D03*
X87145Y53200D02*
D03*
X88055D02*
D03*
X85295Y53700D02*
D03*
X86205D02*
D03*
X87195Y50325D02*
D03*
X88105D02*
D03*
X87195Y49400D02*
D03*
X88105D02*
D03*
X55605Y42625D02*
D03*
X54695D02*
D03*
X53830Y46625D02*
D03*
X52920D02*
D03*
X55655D02*
D03*
X54745D02*
D03*
X50320Y53200D02*
D03*
X51230D02*
D03*
X48470Y53700D02*
D03*
X49380D02*
D03*
X50370Y50325D02*
D03*
X51280D02*
D03*
X50370Y49400D02*
D03*
X51280D02*
D03*
X71630Y21150D02*
D03*
X70720D02*
D03*
X79220Y20150D02*
D03*
X80130D02*
D03*
X79220Y21075D02*
D03*
X80130D02*
D03*
X72820Y17850D02*
D03*
X73730D02*
D03*
X77045D02*
D03*
X77955D02*
D03*
X59970Y16125D02*
D03*
X60880D02*
D03*
X16170Y35725D02*
D03*
X17080D02*
D03*
X18905Y35725D02*
D03*
X17995D02*
D03*
X50205Y16475D02*
D03*
X49295D02*
D03*
X73330Y12450D02*
D03*
X72420D02*
D03*
X51195Y16475D02*
D03*
X52105D02*
D03*
X99670Y20000D02*
D03*
X100580D02*
D03*
X90930Y5025D02*
D03*
X90020D02*
D03*
X12095Y69725D02*
D03*
X13005D02*
D03*
X93480Y2000D02*
D03*
X92570D02*
D03*
X11130Y69725D02*
D03*
X10220D02*
D03*
X93480Y1075D02*
D03*
X92570D02*
D03*
X86485Y5425D02*
D03*
X87395D02*
D03*
X86490Y4450D02*
D03*
X87400D02*
D03*
D84*
X49450Y6350D02*
D03*
X47250D02*
D03*
X46000Y16775D02*
D03*
X48200D02*
D03*
X12945Y57650D02*
D03*
X10745D02*
D03*
X10725Y54025D02*
D03*
X12925D02*
D03*
X46075Y19800D02*
D03*
X48275D02*
D03*
D85*
X44575Y18950D02*
D03*
Y20750D02*
D03*
X301425Y44075D02*
D03*
Y42275D02*
D03*
X264600Y44075D02*
D03*
Y42275D02*
D03*
X227775Y44075D02*
D03*
Y42275D02*
D03*
X190950Y44075D02*
D03*
Y42275D02*
D03*
X154125Y44075D02*
D03*
Y42275D02*
D03*
X117300Y44075D02*
D03*
Y42275D02*
D03*
X80475Y44075D02*
D03*
Y42275D02*
D03*
X43650Y44075D02*
D03*
Y42275D02*
D03*
D86*
X318400Y36900D02*
D03*
X317750D02*
D03*
X317100D02*
D03*
X316450D02*
D03*
X315800D02*
D03*
X315150D02*
D03*
X314500D02*
D03*
X317100Y30800D02*
D03*
X316450D02*
D03*
X315800D02*
D03*
X315150D02*
D03*
X314500D02*
D03*
X313850D02*
D03*
Y36900D02*
D03*
X317750Y30800D02*
D03*
X318400D02*
D03*
X281575Y36900D02*
D03*
X280925D02*
D03*
X280275D02*
D03*
X279625D02*
D03*
X278975D02*
D03*
X278325D02*
D03*
X277675D02*
D03*
X280275Y30800D02*
D03*
X279625D02*
D03*
X278975D02*
D03*
X278325D02*
D03*
X277675D02*
D03*
X277025D02*
D03*
Y36900D02*
D03*
X280925Y30800D02*
D03*
X281575D02*
D03*
X244750Y36900D02*
D03*
X244100D02*
D03*
X243450D02*
D03*
X242800D02*
D03*
X242150D02*
D03*
X241500D02*
D03*
X240850D02*
D03*
X243450Y30800D02*
D03*
X242800D02*
D03*
X242150D02*
D03*
X241500D02*
D03*
X240850D02*
D03*
X240200D02*
D03*
Y36900D02*
D03*
X244100Y30800D02*
D03*
X244750D02*
D03*
X207925Y36900D02*
D03*
X207275D02*
D03*
X206625D02*
D03*
X205975D02*
D03*
X205325D02*
D03*
X204675D02*
D03*
X204025D02*
D03*
X206625Y30800D02*
D03*
X205975D02*
D03*
X205325D02*
D03*
X204675D02*
D03*
X204025D02*
D03*
X203375D02*
D03*
Y36900D02*
D03*
X207275Y30800D02*
D03*
X207925D02*
D03*
X171100Y36900D02*
D03*
X170450D02*
D03*
X169800D02*
D03*
X169150D02*
D03*
X168500D02*
D03*
X167850D02*
D03*
X167200D02*
D03*
X169800Y30800D02*
D03*
X169150D02*
D03*
X168500D02*
D03*
X167850D02*
D03*
X167200D02*
D03*
X166550D02*
D03*
Y36900D02*
D03*
X170450Y30800D02*
D03*
X171100D02*
D03*
X134275Y36900D02*
D03*
X133625D02*
D03*
X132975D02*
D03*
X132325D02*
D03*
X131675D02*
D03*
X131025D02*
D03*
X130375D02*
D03*
X132975Y30800D02*
D03*
X132325D02*
D03*
X131675D02*
D03*
X131025D02*
D03*
X130375D02*
D03*
X129725D02*
D03*
Y36900D02*
D03*
X133625Y30800D02*
D03*
X134275D02*
D03*
X97450Y36900D02*
D03*
X96800D02*
D03*
X96150D02*
D03*
X95500D02*
D03*
X94850D02*
D03*
X94200D02*
D03*
X93550D02*
D03*
X96150Y30800D02*
D03*
X95500D02*
D03*
X94850D02*
D03*
X94200D02*
D03*
X93550D02*
D03*
X92900D02*
D03*
Y36900D02*
D03*
X96800Y30800D02*
D03*
X97450D02*
D03*
X60625Y36900D02*
D03*
X59975D02*
D03*
X59325D02*
D03*
X58675D02*
D03*
X58025D02*
D03*
X57375D02*
D03*
X56725D02*
D03*
X59325Y30800D02*
D03*
X58675D02*
D03*
X58025D02*
D03*
X57375D02*
D03*
X56725D02*
D03*
X56075D02*
D03*
Y36900D02*
D03*
X59975Y30800D02*
D03*
X60625D02*
D03*
X64200Y12925D02*
D03*
X64850D02*
D03*
X65500D02*
D03*
X66150D02*
D03*
X66800D02*
D03*
X67450D02*
D03*
X68100D02*
D03*
X65500Y19025D02*
D03*
X66150D02*
D03*
X66800D02*
D03*
X67450D02*
D03*
X68100D02*
D03*
X68750D02*
D03*
Y12925D02*
D03*
X64850Y19025D02*
D03*
X64200D02*
D03*
D87*
X310725Y43650D02*
D03*
Y44600D02*
D03*
Y45550D02*
D03*
X313125D02*
D03*
Y44600D02*
D03*
X273900Y43650D02*
D03*
Y44600D02*
D03*
Y45550D02*
D03*
X276300D02*
D03*
Y44600D02*
D03*
X237075Y43650D02*
D03*
Y44600D02*
D03*
Y45550D02*
D03*
X239475D02*
D03*
Y44600D02*
D03*
X200250Y43650D02*
D03*
Y44600D02*
D03*
Y45550D02*
D03*
X202650D02*
D03*
Y44600D02*
D03*
X163425Y43650D02*
D03*
Y44600D02*
D03*
Y45550D02*
D03*
X165825D02*
D03*
Y44600D02*
D03*
X126600Y43650D02*
D03*
Y44600D02*
D03*
Y45550D02*
D03*
X129000D02*
D03*
Y44600D02*
D03*
X89775Y43650D02*
D03*
Y44600D02*
D03*
Y45550D02*
D03*
X92175D02*
D03*
Y44600D02*
D03*
X52950Y43650D02*
D03*
Y44600D02*
D03*
Y45550D02*
D03*
X55350D02*
D03*
Y44600D02*
D03*
X40925Y26425D02*
D03*
Y25475D02*
D03*
Y24525D02*
D03*
X38525D02*
D03*
Y25475D02*
D03*
D88*
X313125Y43650D02*
D03*
X276300D02*
D03*
X239475D02*
D03*
X202650D02*
D03*
X165825D02*
D03*
X129000D02*
D03*
X92175D02*
D03*
X55350D02*
D03*
X38525Y26425D02*
D03*
D89*
X51075Y23875D02*
D03*
Y25775D02*
D03*
X48675Y24825D02*
D03*
Y23875D02*
D03*
X74625Y10575D02*
D03*
Y11525D02*
D03*
X77025Y12475D02*
D03*
Y11525D02*
D03*
Y10575D02*
D03*
D90*
X48675Y25775D02*
D03*
X74625Y12475D02*
D03*
D91*
X48475Y27400D02*
D03*
X50075D02*
D03*
X52475Y21450D02*
D03*
X50875D02*
D03*
X308475Y54400D02*
D03*
X310075D02*
D03*
X271650D02*
D03*
X273250D02*
D03*
X234825D02*
D03*
X236425D02*
D03*
X198000D02*
D03*
X199600D02*
D03*
X161175D02*
D03*
X162775D02*
D03*
X124350D02*
D03*
X125950D02*
D03*
X87525D02*
D03*
X89125D02*
D03*
X50700D02*
D03*
X52300D02*
D03*
X54300Y48125D02*
D03*
X52700D02*
D03*
X303625Y50750D02*
D03*
X305225D02*
D03*
X266800D02*
D03*
X268400D02*
D03*
X229975D02*
D03*
X231575D02*
D03*
X193150D02*
D03*
X194750D02*
D03*
X156325D02*
D03*
X157925D02*
D03*
X119500D02*
D03*
X121100D02*
D03*
X82675D02*
D03*
X84275D02*
D03*
X45850D02*
D03*
X47450D02*
D03*
X37700Y20875D02*
D03*
X39300D02*
D03*
X39300Y27750D02*
D03*
X40900D02*
D03*
X300025Y56100D02*
D03*
X298425D02*
D03*
X299650Y50000D02*
D03*
X298050D02*
D03*
X303625Y52225D02*
D03*
X305225D02*
D03*
X263200Y56100D02*
D03*
X261600D02*
D03*
X262825Y50000D02*
D03*
X261225D02*
D03*
X266800Y52225D02*
D03*
X268400D02*
D03*
X226375Y56100D02*
D03*
X224775D02*
D03*
X226000Y50000D02*
D03*
X224400D02*
D03*
X229975Y52225D02*
D03*
X231575D02*
D03*
X189550Y56100D02*
D03*
X187950D02*
D03*
X189175Y50000D02*
D03*
X187575D02*
D03*
X193150Y52225D02*
D03*
X194750D02*
D03*
X152725Y56100D02*
D03*
X151125D02*
D03*
X152350Y50000D02*
D03*
X150750D02*
D03*
X156325Y52225D02*
D03*
X157925D02*
D03*
X115900Y56100D02*
D03*
X114300D02*
D03*
X115525Y50000D02*
D03*
X113925D02*
D03*
X119500Y52225D02*
D03*
X121100D02*
D03*
X79075Y56100D02*
D03*
X77475D02*
D03*
X78700Y50000D02*
D03*
X77100D02*
D03*
X82675Y52225D02*
D03*
X84275D02*
D03*
X42250Y56100D02*
D03*
X40650D02*
D03*
X41875Y50000D02*
D03*
X40275D02*
D03*
X45850Y52225D02*
D03*
X47450D02*
D03*
X310475Y48125D02*
D03*
X312075D02*
D03*
X273650D02*
D03*
X275250D02*
D03*
X236825D02*
D03*
X238425D02*
D03*
X200000D02*
D03*
X201600D02*
D03*
X163175D02*
D03*
X164775D02*
D03*
X126350D02*
D03*
X127950D02*
D03*
X89525D02*
D03*
X91125D02*
D03*
X315175Y48125D02*
D03*
X313575D02*
D03*
X278350D02*
D03*
X276750D02*
D03*
X241525D02*
D03*
X239925D02*
D03*
X204700D02*
D03*
X203100D02*
D03*
X167875D02*
D03*
X166275D02*
D03*
X131050D02*
D03*
X129450D02*
D03*
X94225D02*
D03*
X92625D02*
D03*
X57400D02*
D03*
X55800D02*
D03*
X299675Y46150D02*
D03*
X298075D02*
D03*
X298150Y40050D02*
D03*
X296550D02*
D03*
X262850Y46150D02*
D03*
X261250D02*
D03*
X261325Y40050D02*
D03*
X259725D02*
D03*
X226025Y46150D02*
D03*
X224425D02*
D03*
X224500Y40050D02*
D03*
X222900D02*
D03*
X189200Y46150D02*
D03*
X187600D02*
D03*
X187675Y40050D02*
D03*
X186075D02*
D03*
X152375Y46150D02*
D03*
X150775D02*
D03*
X150850Y40050D02*
D03*
X149250D02*
D03*
X115550Y46150D02*
D03*
X113950D02*
D03*
X114025Y40050D02*
D03*
X112425D02*
D03*
X78725Y46150D02*
D03*
X77125D02*
D03*
X77200Y40050D02*
D03*
X75600D02*
D03*
X41900Y46150D02*
D03*
X40300D02*
D03*
X40375Y40050D02*
D03*
X38775D02*
D03*
X98050Y2000D02*
D03*
X99650D02*
D03*
X101850Y17900D02*
D03*
X103450D02*
D03*
D92*
X54450Y23700D02*
D03*
Y26550D02*
D03*
X42700Y35450D02*
D03*
Y32600D02*
D03*
X79525D02*
D03*
Y35450D02*
D03*
X116350D02*
D03*
Y32600D02*
D03*
X153175D02*
D03*
Y35450D02*
D03*
X190000D02*
D03*
Y32600D02*
D03*
X226825D02*
D03*
Y35450D02*
D03*
X263650D02*
D03*
Y32600D02*
D03*
X300475D02*
D03*
Y35450D02*
D03*
X45450Y64975D02*
D03*
Y62125D02*
D03*
X82275D02*
D03*
Y64975D02*
D03*
X119100D02*
D03*
Y62125D02*
D03*
X155925D02*
D03*
Y64975D02*
D03*
X192750D02*
D03*
Y62125D02*
D03*
X229575D02*
D03*
Y64975D02*
D03*
X266400D02*
D03*
Y62125D02*
D03*
X303225D02*
D03*
Y64975D02*
D03*
X43075Y64975D02*
D03*
Y62125D02*
D03*
X79900D02*
D03*
Y64975D02*
D03*
X116725D02*
D03*
Y62125D02*
D03*
X153550D02*
D03*
Y64975D02*
D03*
X190375D02*
D03*
Y62125D02*
D03*
X227200D02*
D03*
Y64975D02*
D03*
X264025D02*
D03*
Y62125D02*
D03*
X300850D02*
D03*
Y64975D02*
D03*
X47825Y64975D02*
D03*
Y62125D02*
D03*
X84650D02*
D03*
Y64975D02*
D03*
X121475D02*
D03*
Y62125D02*
D03*
X158300D02*
D03*
Y64975D02*
D03*
X195125D02*
D03*
Y62125D02*
D03*
X231950D02*
D03*
Y64975D02*
D03*
X268775D02*
D03*
Y62125D02*
D03*
X305600D02*
D03*
Y64975D02*
D03*
X40675Y64975D02*
D03*
Y62125D02*
D03*
X77500D02*
D03*
Y64975D02*
D03*
X114325D02*
D03*
Y62125D02*
D03*
X151150D02*
D03*
Y64975D02*
D03*
X187975D02*
D03*
Y62125D02*
D03*
X224800D02*
D03*
Y64975D02*
D03*
X261625D02*
D03*
Y62125D02*
D03*
X298450D02*
D03*
Y64975D02*
D03*
D93*
X307800Y56125D02*
D03*
X305900D02*
D03*
Y58725D02*
D03*
X306850D02*
D03*
X307800D02*
D03*
X270975Y56125D02*
D03*
X269075D02*
D03*
Y58725D02*
D03*
X270025D02*
D03*
X270975D02*
D03*
X234150Y56125D02*
D03*
X232250D02*
D03*
Y58725D02*
D03*
X233200D02*
D03*
X234150D02*
D03*
X197325Y56125D02*
D03*
X195425D02*
D03*
Y58725D02*
D03*
X196375D02*
D03*
X197325D02*
D03*
X160500Y56125D02*
D03*
X158600D02*
D03*
Y58725D02*
D03*
X159550D02*
D03*
X160500D02*
D03*
X123675Y56125D02*
D03*
X121775D02*
D03*
Y58725D02*
D03*
X122725D02*
D03*
X123675D02*
D03*
X86850Y56125D02*
D03*
X84950D02*
D03*
Y58725D02*
D03*
X85900D02*
D03*
X86850D02*
D03*
X50025Y56125D02*
D03*
X48125D02*
D03*
Y58725D02*
D03*
X49075D02*
D03*
X50025D02*
D03*
D94*
X22800Y45750D02*
D03*
Y50050D02*
D03*
D95*
X101900Y19975D02*
D03*
X103500D02*
D03*
D96*
X20200Y56250D02*
D03*
X18700D02*
D03*
Y54900D02*
D03*
X20200D02*
D03*
D97*
X19700Y56250D02*
D03*
X19200D02*
D03*
Y54900D02*
D03*
X19700D02*
D03*
D98*
X18550Y55575D02*
D03*
X20350D02*
D03*
D99*
X46245Y45825D02*
D03*
Y45325D02*
D03*
Y44825D02*
D03*
Y44325D02*
D03*
X49155Y45825D02*
D03*
Y45325D02*
D03*
Y44825D02*
D03*
Y44325D02*
D03*
X85980D02*
D03*
Y44825D02*
D03*
Y45325D02*
D03*
Y45825D02*
D03*
X83070Y44325D02*
D03*
Y44825D02*
D03*
Y45325D02*
D03*
Y45825D02*
D03*
X119895D02*
D03*
Y45325D02*
D03*
Y44825D02*
D03*
Y44325D02*
D03*
X122805Y45825D02*
D03*
Y45325D02*
D03*
Y44825D02*
D03*
Y44325D02*
D03*
X159630D02*
D03*
Y44825D02*
D03*
Y45325D02*
D03*
Y45825D02*
D03*
X156720Y44325D02*
D03*
Y44825D02*
D03*
Y45325D02*
D03*
Y45825D02*
D03*
X193545D02*
D03*
Y45325D02*
D03*
Y44825D02*
D03*
Y44325D02*
D03*
X196455Y45825D02*
D03*
Y45325D02*
D03*
Y44825D02*
D03*
Y44325D02*
D03*
X233280D02*
D03*
Y44825D02*
D03*
Y45325D02*
D03*
Y45825D02*
D03*
X230370Y44325D02*
D03*
Y44825D02*
D03*
Y45325D02*
D03*
Y45825D02*
D03*
X267195D02*
D03*
Y45325D02*
D03*
Y44825D02*
D03*
Y44325D02*
D03*
X270105Y45825D02*
D03*
Y45325D02*
D03*
Y44825D02*
D03*
Y44325D02*
D03*
X306930D02*
D03*
Y44825D02*
D03*
Y45325D02*
D03*
Y45825D02*
D03*
X304020Y44325D02*
D03*
Y44825D02*
D03*
Y45325D02*
D03*
Y45825D02*
D03*
D100*
X47700Y45075D02*
D03*
X84525D02*
D03*
X121350D02*
D03*
X158175D02*
D03*
X195000D02*
D03*
X231825D02*
D03*
X268650D02*
D03*
X305475D02*
D03*
D101*
X38178Y19672D02*
D03*
X38822Y19028D02*
D03*
D102*
X46075Y18125D02*
D03*
Y18625D02*
D03*
X46575Y18125D02*
D03*
Y18625D02*
D03*
X47075Y18125D02*
D03*
Y18625D02*
D03*
X12975Y55275D02*
D03*
X12475D02*
D03*
X12975Y55775D02*
D03*
X12475D02*
D03*
X12975Y56275D02*
D03*
X12475D02*
D03*
D103*
X41775Y41975D02*
D03*
X38925D02*
D03*
X75750D02*
D03*
X78600D02*
D03*
X115425D02*
D03*
X112575D02*
D03*
X149400D02*
D03*
X152250D02*
D03*
X189075D02*
D03*
X186225D02*
D03*
X223050D02*
D03*
X225900D02*
D03*
X262725D02*
D03*
X259875D02*
D03*
X296700D02*
D03*
X299550D02*
D03*
X41800Y44275D02*
D03*
X38950D02*
D03*
X75775D02*
D03*
X78625D02*
D03*
X115450D02*
D03*
X112600D02*
D03*
X149425D02*
D03*
X152275D02*
D03*
X189100D02*
D03*
X186250D02*
D03*
X223075D02*
D03*
X225925D02*
D03*
X262750D02*
D03*
X259900D02*
D03*
X296725D02*
D03*
X299575D02*
D03*
X37950Y22825D02*
D03*
X40800D02*
D03*
X39750Y48075D02*
D03*
X42600D02*
D03*
X79425D02*
D03*
X76575D02*
D03*
X113400D02*
D03*
X116250D02*
D03*
X153075D02*
D03*
X150225D02*
D03*
X187050D02*
D03*
X189900D02*
D03*
X226725D02*
D03*
X223875D02*
D03*
X260700D02*
D03*
X263550D02*
D03*
X300375D02*
D03*
X297525D02*
D03*
X40550Y58025D02*
D03*
X43400D02*
D03*
X80225D02*
D03*
X77375D02*
D03*
X114200D02*
D03*
X117050D02*
D03*
X153875D02*
D03*
X151025D02*
D03*
X187850D02*
D03*
X190700D02*
D03*
X227525D02*
D03*
X224675D02*
D03*
X261500D02*
D03*
X264350D02*
D03*
X301175D02*
D03*
X298325D02*
D03*
D104*
X49600Y31950D02*
D03*
Y39900D02*
D03*
X86425D02*
D03*
Y31950D02*
D03*
X123250D02*
D03*
Y39900D02*
D03*
X160075D02*
D03*
Y31950D02*
D03*
X196900D02*
D03*
Y39900D02*
D03*
X233725D02*
D03*
Y31950D02*
D03*
X270550D02*
D03*
Y39900D02*
D03*
X307375D02*
D03*
Y31950D02*
D03*
D105*
X300250Y37150D02*
D03*
Y39350D02*
D03*
X263425Y37150D02*
D03*
Y39350D02*
D03*
X226600Y37150D02*
D03*
Y39350D02*
D03*
X189775Y37150D02*
D03*
Y39350D02*
D03*
X152950Y37150D02*
D03*
Y39350D02*
D03*
X116125Y37150D02*
D03*
Y39350D02*
D03*
X79300Y37150D02*
D03*
Y39350D02*
D03*
X42475Y37150D02*
D03*
Y39350D02*
D03*
D106*
X44700Y22950D02*
D03*
Y27150D02*
D03*
D107*
X298675Y54625D02*
D03*
X298675Y51525D02*
D03*
X299825D02*
D03*
Y54625D02*
D03*
X261850Y54625D02*
D03*
X261850Y51525D02*
D03*
X263000D02*
D03*
Y54625D02*
D03*
X225025Y54625D02*
D03*
X225025Y51525D02*
D03*
X226175D02*
D03*
Y54625D02*
D03*
X188200D02*
D03*
X188200Y51525D02*
D03*
X189350D02*
D03*
Y54625D02*
D03*
X151375Y54625D02*
D03*
X151375Y51525D02*
D03*
X152525D02*
D03*
Y54625D02*
D03*
X114550Y54625D02*
D03*
X114550Y51525D02*
D03*
X115700D02*
D03*
Y54625D02*
D03*
X77725Y54625D02*
D03*
X77725Y51525D02*
D03*
X78875D02*
D03*
Y54625D02*
D03*
X40900D02*
D03*
X40900Y51525D02*
D03*
X42050D02*
D03*
Y54625D02*
D03*
D108*
X298375Y54225D02*
D03*
X298375Y51925D02*
D03*
X261550Y54225D02*
D03*
X261550Y51925D02*
D03*
X224725Y54225D02*
D03*
X224725Y51925D02*
D03*
X187900Y54225D02*
D03*
X187900Y51925D02*
D03*
X151075Y54225D02*
D03*
X151075Y51925D02*
D03*
X114250Y54225D02*
D03*
X114250Y51925D02*
D03*
X77425Y54225D02*
D03*
X77425Y51925D02*
D03*
X40600Y54225D02*
D03*
X40600Y51925D02*
D03*
D109*
X300900Y51375D02*
D03*
X301400D02*
D03*
Y54775D02*
D03*
X300900D02*
D03*
X264075Y51375D02*
D03*
X264575D02*
D03*
Y54775D02*
D03*
X264075D02*
D03*
X227250Y51375D02*
D03*
X227750D02*
D03*
Y54775D02*
D03*
X227250D02*
D03*
X190425Y51375D02*
D03*
X190925D02*
D03*
Y54775D02*
D03*
X190425D02*
D03*
X153600Y51375D02*
D03*
X154100D02*
D03*
Y54775D02*
D03*
X153600D02*
D03*
X116775Y51375D02*
D03*
X117275D02*
D03*
Y54775D02*
D03*
X116775D02*
D03*
X79950Y51375D02*
D03*
X80450D02*
D03*
Y54775D02*
D03*
X79950D02*
D03*
X43125Y51375D02*
D03*
X43625D02*
D03*
Y54775D02*
D03*
X43125D02*
D03*
D110*
X302225Y54225D02*
D03*
Y51925D02*
D03*
X265400Y54225D02*
D03*
Y51925D02*
D03*
X228575Y54225D02*
D03*
Y51925D02*
D03*
X191750Y54225D02*
D03*
Y51925D02*
D03*
X154925Y54225D02*
D03*
Y51925D02*
D03*
X118100Y54225D02*
D03*
Y51925D02*
D03*
X81275Y54225D02*
D03*
Y51925D02*
D03*
X44450Y54225D02*
D03*
Y51925D02*
D03*
D111*
X301950Y54625D02*
D03*
Y51525D02*
D03*
X265125Y54625D02*
D03*
Y51525D02*
D03*
X228300Y54625D02*
D03*
Y51525D02*
D03*
X191475Y54625D02*
D03*
Y51525D02*
D03*
X154650Y54625D02*
D03*
Y51525D02*
D03*
X117825Y54625D02*
D03*
Y51525D02*
D03*
X81000Y54625D02*
D03*
Y51525D02*
D03*
X44175Y54625D02*
D03*
Y51525D02*
D03*
D112*
X302225Y52550D02*
D03*
Y53600D02*
D03*
X265400Y52550D02*
D03*
Y53600D02*
D03*
X228575Y52550D02*
D03*
Y53600D02*
D03*
X191750Y52550D02*
D03*
Y53600D02*
D03*
X154925Y52550D02*
D03*
Y53600D02*
D03*
X118100Y52550D02*
D03*
Y53600D02*
D03*
X81275Y52550D02*
D03*
Y53600D02*
D03*
X44450Y52550D02*
D03*
Y53600D02*
D03*
D113*
X302225Y53075D02*
D03*
X265400Y53075D02*
D03*
X228575Y53075D02*
D03*
X191750D02*
D03*
X154925Y53075D02*
D03*
X118100Y53075D02*
D03*
X81275Y53075D02*
D03*
X44450D02*
D03*
D114*
X299175Y53075D02*
D03*
X262350Y53075D02*
D03*
X225525Y53075D02*
D03*
X188700D02*
D03*
X151875Y53075D02*
D03*
X115050Y53075D02*
D03*
X78225Y53075D02*
D03*
X41400D02*
D03*
D115*
X298625Y20500D02*
D03*
X224975D02*
D03*
X151325Y19500D02*
D03*
X87675Y20500D02*
D03*
D116*
X300625Y19525D02*
D03*
Y20175D02*
D03*
Y20825D02*
D03*
Y21475D02*
D03*
X296625D02*
D03*
Y20825D02*
D03*
Y20175D02*
D03*
Y19525D02*
D03*
X226975D02*
D03*
Y20175D02*
D03*
Y20825D02*
D03*
Y21475D02*
D03*
X222975D02*
D03*
Y20825D02*
D03*
Y20175D02*
D03*
Y19525D02*
D03*
X153325Y18525D02*
D03*
Y19175D02*
D03*
Y19825D02*
D03*
Y20475D02*
D03*
X149325D02*
D03*
Y19825D02*
D03*
Y19175D02*
D03*
Y18525D02*
D03*
X89675Y19525D02*
D03*
Y20175D02*
D03*
Y20825D02*
D03*
Y21475D02*
D03*
X85675D02*
D03*
Y20825D02*
D03*
Y20175D02*
D03*
Y19525D02*
D03*
D117*
X299600Y22500D02*
D03*
X298950D02*
D03*
X298300D02*
D03*
X297650D02*
D03*
Y18500D02*
D03*
X298300D02*
D03*
X298950D02*
D03*
X299600D02*
D03*
X225950Y22500D02*
D03*
X225300D02*
D03*
X224650D02*
D03*
X224000D02*
D03*
Y18500D02*
D03*
X224650D02*
D03*
X225300D02*
D03*
X225950D02*
D03*
X152300Y21500D02*
D03*
X151650D02*
D03*
X151000D02*
D03*
X150350D02*
D03*
Y17500D02*
D03*
X151000D02*
D03*
X151650D02*
D03*
X152300D02*
D03*
X88650Y22500D02*
D03*
X88000D02*
D03*
X87350D02*
D03*
X86700D02*
D03*
Y18500D02*
D03*
X87350D02*
D03*
X88000D02*
D03*
X88650D02*
D03*
D118*
X47025Y8150D02*
D03*
Y10050D02*
D03*
X61150Y17525D02*
D03*
Y19425D02*
D03*
X50125Y19775D02*
D03*
Y17875D02*
D03*
D119*
X53975Y8025D02*
D03*
Y9325D02*
D03*
X51825Y8675D02*
D03*
D120*
X289064Y52936D02*
D03*
X289686Y52314D02*
D03*
X252239Y52936D02*
D03*
X252861Y52314D02*
D03*
X215414Y52936D02*
D03*
X216036Y52314D02*
D03*
X178589Y52936D02*
D03*
X179211Y52314D02*
D03*
X141764Y52936D02*
D03*
X142386Y52314D02*
D03*
X104939Y52936D02*
D03*
X105561Y52314D02*
D03*
X68114Y52936D02*
D03*
X68736Y52314D02*
D03*
X31289Y52936D02*
D03*
X31911Y52314D02*
D03*
D121*
X292125Y66275D02*
D03*
Y56775D02*
D03*
X255300Y66275D02*
D03*
Y56775D02*
D03*
X218475Y66275D02*
D03*
Y56775D02*
D03*
X181650Y66275D02*
D03*
Y56775D02*
D03*
X144825Y66275D02*
D03*
Y56775D02*
D03*
X108000Y66275D02*
D03*
Y56775D02*
D03*
X71175Y66275D02*
D03*
Y56775D02*
D03*
X34350Y66275D02*
D03*
Y56775D02*
D03*
D122*
X312050Y69375D02*
D03*
Y64025D02*
D03*
X275225Y69375D02*
D03*
Y64025D02*
D03*
X238400Y69375D02*
D03*
Y64025D02*
D03*
X201575Y69375D02*
D03*
Y64025D02*
D03*
X164750Y69375D02*
D03*
Y64025D02*
D03*
X127925Y69375D02*
D03*
Y64025D02*
D03*
X91100Y69375D02*
D03*
Y64025D02*
D03*
X54275Y69375D02*
D03*
Y64025D02*
D03*
D123*
X315375Y52526D02*
D03*
Y50724D02*
D03*
X278550Y52526D02*
D03*
Y50724D02*
D03*
X241725Y52526D02*
D03*
Y50724D02*
D03*
X204900Y52526D02*
D03*
Y50724D02*
D03*
X168075Y52526D02*
D03*
Y50724D02*
D03*
X131250Y52526D02*
D03*
Y50724D02*
D03*
X94425Y52526D02*
D03*
Y50724D02*
D03*
X57600Y52526D02*
D03*
Y50724D02*
D03*
D124*
X310079Y50640D02*
D03*
X310579D02*
D03*
X311079D02*
D03*
X311579D02*
D03*
X310079Y52470D02*
D03*
X310579D02*
D03*
X311079D02*
D03*
X273254Y50640D02*
D03*
X273754D02*
D03*
X274254D02*
D03*
X274754D02*
D03*
X273254Y52470D02*
D03*
X273754D02*
D03*
X274254D02*
D03*
X236429Y50640D02*
D03*
X236929D02*
D03*
X237429D02*
D03*
X237929D02*
D03*
X236429Y52470D02*
D03*
X236929D02*
D03*
X237429D02*
D03*
X199604Y50640D02*
D03*
X200104D02*
D03*
X200604D02*
D03*
X201104D02*
D03*
X199604Y52470D02*
D03*
X200104D02*
D03*
X200604D02*
D03*
X162779Y50640D02*
D03*
X163279D02*
D03*
X163779D02*
D03*
X164279D02*
D03*
X162779Y52470D02*
D03*
X163279D02*
D03*
X163779D02*
D03*
X125954Y50640D02*
D03*
X126454D02*
D03*
X126954D02*
D03*
X127454D02*
D03*
X125954Y52470D02*
D03*
X126454D02*
D03*
X126954D02*
D03*
X89129Y50640D02*
D03*
X89629D02*
D03*
X90129D02*
D03*
X90629D02*
D03*
X89129Y52470D02*
D03*
X89629D02*
D03*
X90129D02*
D03*
X52304Y50640D02*
D03*
X52804D02*
D03*
X53304D02*
D03*
X53804D02*
D03*
X52304Y52470D02*
D03*
X52804D02*
D03*
X53304D02*
D03*
D125*
X311579Y52420D02*
D03*
X274754D02*
D03*
X237929D02*
D03*
X201104D02*
D03*
X164279D02*
D03*
X127454D02*
D03*
X90629D02*
D03*
X53804D02*
D03*
D126*
X73250Y21050D02*
D03*
D127*
Y20400D02*
D03*
Y19750D02*
D03*
Y19100D02*
D03*
X77750Y21050D02*
D03*
Y20400D02*
D03*
Y19750D02*
D03*
Y19100D02*
D03*
D128*
X62675Y14750D02*
D03*
Y12650D02*
D03*
X60775Y14750D02*
D03*
Y12650D02*
D03*
D129*
X92816Y6259D02*
D03*
Y6759D02*
D03*
Y7259D02*
D03*
Y7759D02*
D03*
Y8259D02*
D03*
Y8759D02*
D03*
Y9259D02*
D03*
Y9759D02*
D03*
Y10259D02*
D03*
Y10759D02*
D03*
Y11259D02*
D03*
Y11759D02*
D03*
Y12259D02*
D03*
Y12759D02*
D03*
Y13259D02*
D03*
Y13759D02*
D03*
X104616D02*
D03*
Y13259D02*
D03*
Y12759D02*
D03*
Y12259D02*
D03*
Y11759D02*
D03*
Y11259D02*
D03*
Y10759D02*
D03*
Y10259D02*
D03*
Y9759D02*
D03*
Y9259D02*
D03*
Y8759D02*
D03*
Y8259D02*
D03*
Y7759D02*
D03*
Y7259D02*
D03*
Y6759D02*
D03*
Y6259D02*
D03*
D130*
X94966Y15909D02*
D03*
X95466D02*
D03*
X95966D02*
D03*
X96466D02*
D03*
X96966D02*
D03*
X97466D02*
D03*
X97966D02*
D03*
X98466D02*
D03*
X98966D02*
D03*
X99466D02*
D03*
X99966D02*
D03*
X100466D02*
D03*
X100966D02*
D03*
X101466D02*
D03*
X101966D02*
D03*
X102466D02*
D03*
Y4109D02*
D03*
X101966D02*
D03*
X101466D02*
D03*
X100966D02*
D03*
X100466D02*
D03*
X99966D02*
D03*
X99466D02*
D03*
X98966D02*
D03*
X98466D02*
D03*
X97966D02*
D03*
X97466D02*
D03*
X96966D02*
D03*
X96466D02*
D03*
X95966D02*
D03*
X95466D02*
D03*
X94966D02*
D03*
D131*
X12575Y67650D02*
D03*
X13525D02*
D03*
X14475Y65250D02*
D03*
X13525D02*
D03*
X12575D02*
D03*
D132*
X14475Y67650D02*
D03*
D133*
X54600Y19720D02*
D03*
Y17820D02*
D03*
X52000D02*
D03*
Y18770D02*
D03*
Y19720D02*
D03*
D134*
X40875Y20700D02*
D03*
X42775D02*
D03*
D135*
X16700Y70200D02*
D03*
X325625Y10550D02*
D03*
D136*
X323125Y3700D02*
D03*
X286250D02*
D03*
X175775Y75000D02*
D03*
X28475Y3700D02*
D03*
X13000Y48500D02*
D03*
X13000Y3700D02*
D03*
X65300Y48500D02*
D03*
X323075D02*
D03*
X286250D02*
D03*
X249425D02*
D03*
X212600D02*
D03*
X175775D02*
D03*
X138950D02*
D03*
X102125D02*
D03*
X28475D02*
D03*
X28475Y75000D02*
D03*
X323075D02*
D03*
X286250D02*
D03*
X249425D02*
D03*
X212600D02*
D03*
X138950D02*
D03*
X102125D02*
D03*
X65300D02*
D03*
D137*
X294350Y75975D02*
D03*
X257525D02*
D03*
X220700D02*
D03*
X183875D02*
D03*
X147050D02*
D03*
X110225D02*
D03*
X73400D02*
D03*
X36575D02*
D03*
X304625D02*
D03*
X267800D02*
D03*
X230975D02*
D03*
X194150D02*
D03*
X157325D02*
D03*
X120500D02*
D03*
X83675D02*
D03*
X46850D02*
D03*
X58755Y72000D02*
D03*
X95580D02*
D03*
X132405D02*
D03*
X169230D02*
D03*
X206055D02*
D03*
X242880D02*
D03*
X279705D02*
D03*
X316530D02*
D03*
D138*
X294350Y70975D02*
D03*
X257525D02*
D03*
X220700D02*
D03*
X183875D02*
D03*
X147050D02*
D03*
X110225D02*
D03*
X73400D02*
D03*
X36575D02*
D03*
X304625D02*
D03*
X267800D02*
D03*
X230975D02*
D03*
X194150D02*
D03*
X157325D02*
D03*
X120500D02*
D03*
X83675D02*
D03*
X46850D02*
D03*
D139*
X12630Y73375D02*
D03*
Y74275D02*
D03*
X11850Y74725D02*
D03*
Y75625D02*
D03*
X12630Y71575D02*
D03*
Y76075D02*
D03*
Y72475D02*
D03*
Y75175D02*
D03*
X11850Y72925D02*
D03*
Y76525D02*
D03*
Y77425D02*
D03*
Y72025D02*
D03*
Y73825D02*
D03*
X12630Y76975D02*
D03*
D140*
X25150Y12710D02*
D03*
X22150Y15710D02*
D03*
Y12710D02*
D03*
X16150D02*
D03*
Y15710D02*
D03*
X19150Y12710D02*
D03*
Y15710D02*
D03*
X13150Y12710D02*
D03*
X16150Y60285D02*
D03*
Y63285D02*
D03*
X19150Y60285D02*
D03*
Y63285D02*
D03*
X22150Y60285D02*
D03*
X13150D02*
D03*
X16150Y37285D02*
D03*
Y40285D02*
D03*
X19150Y37285D02*
D03*
Y40285D02*
D03*
X22150Y37285D02*
D03*
X13150D02*
D03*
X89175Y57060D02*
D03*
X98175D02*
D03*
X95175Y60060D02*
D03*
Y57060D02*
D03*
X92175Y60060D02*
D03*
Y57060D02*
D03*
X165825D02*
D03*
Y60060D02*
D03*
X168825Y57060D02*
D03*
Y60060D02*
D03*
X171825Y57060D02*
D03*
X162825D02*
D03*
X199650D02*
D03*
X208650D02*
D03*
X205650Y60060D02*
D03*
Y57060D02*
D03*
X202650Y60060D02*
D03*
Y57060D02*
D03*
X239475D02*
D03*
Y60060D02*
D03*
X242475Y57060D02*
D03*
Y60060D02*
D03*
X245475Y57060D02*
D03*
X236475D02*
D03*
X273300D02*
D03*
X282300D02*
D03*
X279300Y60060D02*
D03*
Y57060D02*
D03*
X276300Y60060D02*
D03*
Y57060D02*
D03*
X313125D02*
D03*
Y60060D02*
D03*
X316125Y57060D02*
D03*
Y60060D02*
D03*
X319125Y57060D02*
D03*
X310125D02*
D03*
X52350D02*
D03*
X61350D02*
D03*
X58350Y60060D02*
D03*
Y57060D02*
D03*
X55350Y60060D02*
D03*
Y57060D02*
D03*
X129000D02*
D03*
Y60060D02*
D03*
X132000Y57060D02*
D03*
Y60060D02*
D03*
X135000Y57060D02*
D03*
X126000D02*
D03*
D141*
X36060Y10000D02*
D03*
D142*
X41140D02*
D03*
D143*
X10810Y72125D02*
D03*
X13670D02*
D03*
Y76925D02*
D03*
X10810D02*
D03*
D144*
X19775Y77950D02*
D03*
X22315D02*
D03*
D145*
X17235D02*
D03*
D146*
X24855D02*
D03*
D147*
X19775Y72870D02*
D03*
X82030Y14775D02*
D03*
X74410D02*
D03*
X76950D02*
D03*
X79490D02*
D03*
X81045Y5175D02*
D03*
D148*
X54945Y72000D02*
D03*
X91770D02*
D03*
X128595D02*
D03*
X165420D02*
D03*
X202245D02*
D03*
X239070D02*
D03*
X275895D02*
D03*
X312720D02*
D03*
D149*
X49850Y4150D02*
D03*
X47310D02*
D03*
D150*
X52390D02*
D03*
D151*
X71870Y14775D02*
D03*
X83585Y5175D02*
D03*
D152*
X28500Y42850D02*
D03*
D153*
Y20250D02*
D03*
M02*
